<?xml version="1.0" encoding="UTF-8"?>
<svg xmlns="http://www.w3.org/2000/svg" xmlns:xlink="http://www.w3.org/1999/xlink" width="548pt" height="406pt" viewBox="0 0 548 406" version="1.1">
<defs>
<filter id="alpha" filterUnits="objectBoundingBox" x="0%" y="0%" width="100%" height="100%">
  <feColorMatrix type="matrix" in="SourceGraphic" values="0 0 0 0 1 0 0 0 0 1 0 0 0 0 1 0 0 0 1 0"/>
</filter>
<mask id="mask0">
  <g filter="url(#alpha)">
<rect x="0" y="0" width="548" height="406" style="fill:rgb(0%,0%,0%);fill-opacity:0.101961;stroke:none;"/>
  </g>
</mask>
<mask id="mask1">
  <g filter="url(#alpha)">
<rect x="0" y="0" width="548" height="406" style="fill:rgb(0%,0%,0%);fill-opacity:0.25098;stroke:none;"/>
  </g>
</mask>
<clipPath id="clip2">
  <rect x="0" y="0" width="548" height="406"/>
</clipPath>
<g id="surface6" clip-path="url(#clip2)">
<path style=" stroke:none;fill-rule:nonzero;fill:rgb(0%,0%,0%);fill-opacity:1;" d="M 517.546875 252 C 514.804688 255.449219 500.613281 260.5 500.613281 260.5 C 500.613281 260.5 502.320312 245.5 505.0625 242.074219 C 506.769531 239.640625 509.683594 238.351562 512.628906 238.730469 C 515.578125 239.109375 518.070312 241.09375 519.105469 243.882812 C 520.136719 246.671875 519.539062 249.804688 517.554688 252.015625 Z M 517.546875 252 "/>
</g>
<mask id="mask2">
  <g filter="url(#alpha)">
<rect x="0" y="0" width="548" height="406" style="fill:rgb(0%,0%,0%);fill-opacity:0.25098;stroke:none;"/>
  </g>
</mask>
<clipPath id="clip3">
  <rect x="0" y="0" width="548" height="406"/>
</clipPath>
<g id="surface9" clip-path="url(#clip3)">
<path style=" stroke:none;fill-rule:nonzero;fill:rgb(0%,0%,0%);fill-opacity:1;" d="M 512.675781 279.324219 C 508.5 280.730469 493.855469 277.234375 493.855469 277.234375 C 493.855469 277.234375 503.421875 265.59375 507.597656 264.191406 C 510.355469 263.058594 513.511719 263.558594 515.785156 265.480469 C 518.0625 267.40625 519.078125 270.4375 518.425781 273.347656 C 517.773438 276.257812 515.558594 278.558594 512.675781 279.324219 Z M 512.675781 279.324219 "/>
</g>
<mask id="mask3">
  <g filter="url(#alpha)">
<rect x="0" y="0" width="548" height="406" style="fill:rgb(0%,0%,0%);fill-opacity:0.25098;stroke:none;"/>
  </g>
</mask>
<clipPath id="clip4">
  <rect x="0" y="0" width="548" height="406"/>
</clipPath>
<g id="surface12" clip-path="url(#clip4)">
<path style=" stroke:none;fill-rule:nonzero;fill:rgb(0%,0%,0%);fill-opacity:1;" d="M 486.269531 311.628906 C 481.960938 310.734375 471.074219 300.316406 471.074219 300.316406 C 471.074219 300.316406 485.203125 295.101562 489.519531 295.996094 C 493.570312 297.125 496.054688 301.207031 495.199219 305.328125 C 494.339844 309.453125 490.4375 312.207031 486.269531 311.625 Z M 486.269531 311.628906 "/>
</g>
<mask id="mask4">
  <g filter="url(#alpha)">
<rect x="0" y="0" width="548" height="406" style="fill:rgb(0%,0%,0%);fill-opacity:0.25098;stroke:none;"/>
  </g>
</mask>
<clipPath id="clip5">
  <rect x="0" y="0" width="548" height="406"/>
</clipPath>
<g id="surface15" clip-path="url(#clip5)">
<path style=" stroke:none;fill-rule:nonzero;fill:rgb(0%,0%,0%);fill-opacity:1;" d="M 460.792969 331.570312 C 456.394531 331.414062 443.90625 322.988281 443.90625 322.988281 C 443.90625 322.988281 456.953125 315.449219 461.355469 315.609375 C 465.542969 316.035156 468.679688 319.640625 468.53125 323.847656 C 468.386719 328.058594 465 331.433594 460.792969 331.566406 Z M 460.792969 331.570312 "/>
</g>
<mask id="mask5">
  <g filter="url(#alpha)">
<rect x="0" y="0" width="548" height="406" style="fill:rgb(0%,0%,0%);fill-opacity:0.25098;stroke:none;"/>
  </g>
</mask>
<clipPath id="clip6">
  <rect x="0" y="0" width="548" height="406"/>
</clipPath>
<g id="surface18" clip-path="url(#clip6)">
<path style=" stroke:none;fill-rule:nonzero;fill:rgb(0%,0%,0%);fill-opacity:1;" d="M 480.21875 267.449219 C 480.78125 271.824219 490.316406 283.484375 490.316406 283.484375 C 490.316406 283.484375 496.597656 269.785156 496.039062 265.410156 C 495.851562 262.433594 494.023438 259.808594 491.300781 258.597656 C 488.574219 257.390625 485.40625 257.796875 483.074219 259.660156 C 480.746094 261.519531 479.644531 264.523438 480.21875 267.449219 Z M 480.21875 267.449219 "/>
</g>
<mask id="mask6">
  <g filter="url(#alpha)">
<rect x="0" y="0" width="548" height="406" style="fill:rgb(0%,0%,0%);fill-opacity:0.25098;stroke:none;"/>
  </g>
</mask>
<clipPath id="clip7">
  <rect x="0" y="0" width="548" height="406"/>
</clipPath>
<g id="surface21" clip-path="url(#clip7)">
<path style=" stroke:none;fill-rule:nonzero;fill:rgb(0%,0%,0%);fill-opacity:1;" d="M 450.714844 291.171875 C 452.558594 295.171875 465.144531 303.445312 465.144531 303.445312 C 465.144531 303.445312 467.042969 288.488281 465.199219 284.488281 C 464.128906 281.707031 461.601562 279.753906 458.644531 279.414062 C 455.683594 279.078125 452.785156 280.417969 451.117188 282.890625 C 449.449219 285.359375 449.296875 288.554688 450.714844 291.175781 Z M 450.714844 291.171875 "/>
</g>
<mask id="mask7">
  <g filter="url(#alpha)">
<rect x="0" y="0" width="548" height="406" style="fill:rgb(0%,0%,0%);fill-opacity:0.25098;stroke:none;"/>
  </g>
</mask>
<clipPath id="clip8">
  <rect x="0" y="0" width="548" height="406"/>
</clipPath>
<g id="surface24" clip-path="url(#clip8)">
<path style=" stroke:none;fill-rule:nonzero;fill:rgb(0%,0%,0%);fill-opacity:1;" d="M 425.195312 318.140625 C 426.335938 322.398438 437.351562 332.679688 437.351562 332.679688 C 437.351562 332.679688 441.746094 318.265625 440.601562 314.003906 C 440.023438 311.078125 437.863281 308.714844 435 307.878906 C 432.136719 307.042969 429.046875 307.875 426.988281 310.03125 C 424.925781 312.1875 424.234375 315.316406 425.195312 318.140625 Z M 425.195312 318.140625 "/>
</g>
<clipPath id="clip1">
  <rect x="0" y="0" width="548" height="406"/>
</clipPath>
<g id="surface26" clip-path="url(#clip1)">
<path style=" stroke:none;fill-rule:nonzero;fill:rgb(83.529412%,64.705882%,18.039216%);fill-opacity:1;" d="M 438.828125 287.574219 C 438.828125 287.574219 399.707031 282.488281 428.882812 345.871094 C 428.882812 345.871094 455.472656 334.464844 456.535156 308.738281 C 456.980469 298.378906 449.613281 289.320312 439.382812 287.65625 Z M 438.828125 287.574219 "/>
<path style="fill:none;stroke-width:1;stroke-linecap:butt;stroke-linejoin:miter;stroke:rgb(32.54902%,32.941176%,38.039216%);stroke-opacity:1;stroke-miterlimit:10;" d="M 931.056517 619.060938 C 931.056517 619.060938 948.791433 689.740625 910.060815 735.85 " transform="matrix(0.499544,0,0,0.5,-25.70155,-22.05)"/>
<path style="fill:none;stroke-width:2;stroke-linecap:butt;stroke-linejoin:miter;stroke:rgb(32.54902%,32.941176%,38.039216%);stroke-opacity:1;stroke-miterlimit:10;" d="M 908.997345 742.38125 C 908.997345 742.38125 937.202744 672.88125 989.860121 647.1 C 1012.036586 636.428125 1030.146845 618.85 1041.469667 596.998438 C 1046.763555 586.592188 1051.087809 575.725 1054.403332 564.529688 " transform="matrix(0.499544,0,0,0.5,-25.70155,-22.05)"/>
<path style=" stroke:none;fill-rule:nonzero;fill:rgb(83.529412%,64.705882%,18.039216%);fill-opacity:1;" d="M 517.546875 252 C 514.804688 255.449219 500.613281 260.5 500.613281 260.5 C 500.613281 260.5 502.320312 245.5 505.0625 242.074219 C 506.769531 239.640625 509.683594 238.351562 512.628906 238.730469 C 515.578125 239.109375 518.070312 241.09375 519.105469 243.882812 C 520.136719 246.671875 519.539062 249.804688 517.554688 252.015625 Z M 517.546875 252 "/>
<path style=" stroke:none;fill-rule:nonzero;fill:rgb(83.529412%,64.705882%,18.039216%);fill-opacity:1;" d="M 512.675781 279.324219 C 508.5 280.730469 493.855469 277.234375 493.855469 277.234375 C 493.855469 277.234375 503.421875 265.59375 507.597656 264.191406 C 510.355469 263.058594 513.511719 263.558594 515.785156 265.480469 C 518.0625 267.40625 519.078125 270.4375 518.425781 273.347656 C 517.773438 276.257812 515.558594 278.558594 512.675781 279.324219 Z M 512.675781 279.324219 "/>
<path style=" stroke:none;fill-rule:nonzero;fill:rgb(83.529412%,64.705882%,18.039216%);fill-opacity:1;" d="M 486.269531 311.628906 C 481.960938 310.734375 471.074219 300.316406 471.074219 300.316406 C 471.074219 300.316406 485.203125 295.101562 489.519531 295.996094 C 493.570312 297.125 496.054688 301.207031 495.199219 305.328125 C 494.339844 309.453125 490.4375 312.207031 486.269531 311.625 Z M 486.269531 311.628906 "/>
<path style=" stroke:none;fill-rule:nonzero;fill:rgb(83.529412%,64.705882%,18.039216%);fill-opacity:1;" d="M 460.792969 331.570312 C 456.394531 331.414062 443.90625 322.988281 443.90625 322.988281 C 443.90625 322.988281 456.953125 315.449219 461.355469 315.609375 C 465.542969 316.035156 468.679688 319.640625 468.53125 323.847656 C 468.386719 328.058594 465 331.433594 460.792969 331.566406 Z M 460.792969 331.570312 "/>
<path style=" stroke:none;fill-rule:nonzero;fill:rgb(83.529412%,64.705882%,18.039216%);fill-opacity:1;" d="M 480.21875 267.449219 C 480.78125 271.824219 490.316406 283.484375 490.316406 283.484375 C 490.316406 283.484375 496.597656 269.785156 496.039062 265.410156 C 495.851562 262.433594 494.023438 259.808594 491.300781 258.597656 C 488.574219 257.390625 485.40625 257.796875 483.074219 259.660156 C 480.746094 261.519531 479.644531 264.523438 480.21875 267.449219 Z M 480.21875 267.449219 "/>
<path style=" stroke:none;fill-rule:nonzero;fill:rgb(83.529412%,64.705882%,18.039216%);fill-opacity:1;" d="M 450.714844 291.171875 C 452.558594 295.171875 465.144531 303.445312 465.144531 303.445312 C 465.144531 303.445312 467.042969 288.488281 465.199219 284.488281 C 464.128906 281.707031 461.601562 279.753906 458.644531 279.414062 C 455.683594 279.078125 452.785156 280.417969 451.117188 282.890625 C 449.449219 285.359375 449.296875 288.554688 450.714844 291.175781 Z M 450.714844 291.171875 "/>
<path style=" stroke:none;fill-rule:nonzero;fill:rgb(83.529412%,64.705882%,18.039216%);fill-opacity:1;" d="M 425.195312 318.140625 C 426.335938 322.398438 437.351562 332.679688 437.351562 332.679688 C 437.351562 332.679688 441.746094 318.265625 440.601562 314.003906 C 440.023438 311.078125 437.863281 308.714844 435 307.878906 C 432.136719 307.042969 429.046875 307.875 426.988281 310.03125 C 424.925781 312.1875 424.234375 315.316406 425.195312 318.140625 Z M 425.195312 318.140625 "/>
<use xlink:href="#surface6" mask="url(#mask1)"/>
<use xlink:href="#surface9" mask="url(#mask2)"/>
<use xlink:href="#surface12" mask="url(#mask3)"/>
<use xlink:href="#surface15" mask="url(#mask4)"/>
<use xlink:href="#surface18" mask="url(#mask5)"/>
<use xlink:href="#surface21" mask="url(#mask6)"/>
<use xlink:href="#surface24" mask="url(#mask7)"/>
<path style="fill:none;stroke-width:2;stroke-linecap:butt;stroke-linejoin:miter;stroke:rgb(32.54902%,32.941176%,38.039216%);stroke-opacity:1;stroke-miterlimit:10;" d="M 946.562839 773.998438 C 946.562839 773.998438 974.760419 704.498438 1027.417795 678.717188 C 1049.586441 668.0375 1067.68106 650.459375 1079.003882 628.607813 C 1084.289951 618.201563 1088.622025 607.334375 1091.929727 596.139063 " transform="matrix(0.499544,0,0,0.5,-25.70155,-22.05)"/>
<path style=" stroke:none;fill-rule:nonzero;fill:rgb(83.529412%,64.705882%,18.039216%);fill-opacity:1;" d="M 536.285156 267.800781 C 533.542969 271.25 519.351562 276.300781 519.351562 276.300781 C 519.351562 276.300781 521.058594 261.300781 523.800781 257.875 C 526.628906 254.730469 531.410156 254.332031 534.71875 256.964844 C 538.027344 259.597656 538.714844 264.351562 536.289062 267.816406 Z M 536.285156 267.800781 "/>
<path style=" stroke:none;fill-rule:nonzero;fill:rgb(83.529412%,64.705882%,18.039216%);fill-opacity:1;" d="M 531.425781 295.125 C 527.25 296.53125 512.601562 293.035156 512.601562 293.035156 C 512.601562 293.035156 522.167969 281.394531 526.34375 279.988281 C 530.417969 278.910156 534.628906 281.175781 535.96875 285.175781 C 537.3125 289.171875 535.324219 293.527344 531.425781 295.125 Z M 531.425781 295.125 "/>
<path style=" stroke:none;fill-rule:nonzero;fill:rgb(83.529412%,64.705882%,18.039216%);fill-opacity:1;" d="M 505.019531 327.449219 C 500.707031 326.554688 489.824219 316.136719 489.824219 316.136719 C 489.824219 316.136719 503.949219 310.921875 508.265625 311.816406 C 512.320312 312.945312 514.800781 317.027344 513.945312 321.148438 C 513.089844 325.273438 509.1875 328.023438 505.019531 327.445312 Z M 505.019531 327.449219 "/>
<path style=" stroke:none;fill-rule:nonzero;fill:rgb(83.529412%,64.705882%,18.039216%);fill-opacity:1;" d="M 479.539062 347.363281 C 475.136719 347.210938 462.648438 338.785156 462.648438 338.785156 C 462.648438 338.785156 475.695312 331.253906 480.097656 331.410156 C 484.285156 331.835938 487.421875 335.441406 487.277344 339.648438 C 487.128906 343.859375 483.742188 347.234375 479.539062 347.363281 Z M 479.539062 347.363281 "/>
<path style=" stroke:none;fill-rule:nonzero;fill:rgb(83.529412%,64.705882%,18.039216%);fill-opacity:1;" d="M 498.960938 283.269531 C 499.523438 287.644531 509.058594 299.304688 509.058594 299.304688 C 509.058594 299.304688 515.339844 285.605469 514.78125 281.230469 C 514.59375 278.253906 512.765625 275.628906 510.042969 274.417969 C 507.316406 273.210938 504.148438 273.617188 501.816406 275.480469 C 499.488281 277.339844 498.386719 280.34375 498.960938 283.269531 Z M 498.960938 283.269531 "/>
<path style=" stroke:none;fill-rule:nonzero;fill:rgb(83.529412%,64.705882%,18.039216%);fill-opacity:1;" d="M 469.460938 306.949219 C 471.304688 310.949219 483.894531 319.226562 483.894531 319.226562 C 483.894531 319.226562 485.792969 304.269531 483.949219 300.269531 C 481.941406 296.5625 477.402344 295.050781 473.574219 296.816406 C 469.746094 298.582031 467.945312 303.019531 469.460938 306.953125 Z M 469.460938 306.949219 "/>
<path style=" stroke:none;fill-rule:nonzero;fill:rgb(83.529412%,64.705882%,18.039216%);fill-opacity:1;" d="M 443.945312 333.949219 C 445.082031 338.210938 456.097656 348.488281 456.097656 348.488281 C 456.097656 348.488281 460.496094 334.074219 459.351562 329.816406 C 457.992188 325.828125 453.78125 323.578125 449.714844 324.667969 C 445.648438 325.757812 443.125 329.816406 443.945312 333.949219 Z M 443.945312 333.949219 "/>
</g>
<mask id="mask8">
  <g filter="url(#alpha)">
<rect x="0" y="0" width="548" height="406" style="fill:rgb(0%,0%,0%);fill-opacity:0.101961;stroke:none;"/>
  </g>
</mask>
<clipPath id="clip9">
  <rect x="0" y="0" width="548" height="406"/>
</clipPath>
<g id="surface29" clip-path="url(#clip9)">
<path style=" stroke:none;fill-rule:nonzero;fill:rgb(83.529412%,64.705882%,18.039216%);fill-opacity:1;" d="M 5.917969 214.984375 C 14.589844 252.085938 32.949219 284.15625 61.964844 299.699219 C 122.257812 332.003906 258.238281 315.34375 359.726562 296.199219 C 411.003906 286.5625 457.550781 259.933594 491.871094 220.601562 Z M 5.917969 214.984375 "/>
</g>
<mask id="mask9">
  <g filter="url(#alpha)">
<rect x="0" y="0" width="548" height="406" style="fill:rgb(0%,0%,0%);fill-opacity:0.101961;stroke:none;"/>
  </g>
</mask>
<clipPath id="clip10">
  <rect x="0" y="0" width="548" height="406"/>
</clipPath>
<g id="surface32" clip-path="url(#clip10)">
<path style=" stroke:none;fill-rule:nonzero;fill:rgb(83.529412%,64.705882%,18.039216%);fill-opacity:1;" d="M 538.109375 40.355469 L 482.425781 40.355469 C 479.765625 40.355469 477.613281 38.199219 477.613281 35.539062 C 477.613281 32.875 479.765625 30.71875 482.425781 30.71875 L 492.050781 30.71875 C 489.394531 30.71875 487.238281 28.5625 487.238281 25.902344 C 487.238281 23.242188 489.394531 21.085938 492.050781 21.085938 L 485.175781 21.085938 C 482.519531 21.085938 480.363281 18.929688 480.363281 16.265625 C 480.363281 13.605469 482.519531 11.449219 485.175781 11.449219 L 514.242188 11.449219 C 507.792969 8.449219 500.253906 6.316406 491.570312 5.195312 C 412.324219 -4.996094 384.03125 1.746094 374.046875 8.695312 C 361.734375 17.246094 347.996094 23.535156 333.316406 26.566406 C 284.414062 36.648438 192.972656 48.800781 110.09375 22.664062 C 68.902344 9.664062 38.285156 31.625 19.9375 68.304688 L 547.773438 68.304688 C 547.085938 57.644531 545.023438 47.804688 541.234375 39.183594 C 540.367188 39.9375 539.257812 40.351562 538.109375 40.355469 Z M 538.109375 40.355469 "/>
</g>
<mask id="mask10">
  <g filter="url(#alpha)">
<rect x="0" y="0" width="548" height="406" style="fill:rgb(0%,0%,0%);fill-opacity:0.101961;stroke:none;"/>
  </g>
</mask>
<clipPath id="clip11">
  <rect x="0" y="0" width="548" height="406"/>
</clipPath>
<g id="surface35" clip-path="url(#clip11)">
<path style=" stroke:none;fill-rule:nonzero;fill:rgb(83.529412%,64.705882%,18.039216%);fill-opacity:1;" d="M 1.195312 137.550781 C -0.945312 159.128906 -0.214844 180.894531 3.355469 202.28125 L 492.25 220.175781 C 505.859375 204.503906 517.285156 187.0625 526.21875 168.324219 Z M 194.558594 183.726562 L 184.929688 183.726562 C 187.589844 183.726562 189.746094 185.882812 189.746094 188.542969 C 189.746094 191.203125 187.589844 193.359375 184.929688 193.359375 L 129.246094 193.359375 C 126.589844 193.359375 124.433594 191.203125 124.433594 188.542969 C 124.433594 185.882812 126.589844 183.726562 129.246094 183.726562 L 138.875 183.726562 C 136.214844 183.726562 134.058594 181.566406 134.058594 178.90625 C 134.058594 176.246094 136.214844 174.089844 138.875 174.089844 L 132 174.089844 C 129.339844 174.089844 127.1875 171.933594 127.1875 169.273438 C 127.1875 166.613281 129.339844 164.453125 132 164.453125 L 187.683594 164.453125 C 190.34375 164.453125 192.496094 166.613281 192.496094 169.273438 C 192.496094 171.933594 190.34375 174.089844 187.683594 174.089844 L 194.558594 174.089844 C 197.214844 174.089844 199.371094 176.246094 199.371094 178.90625 C 199.371094 181.566406 197.214844 183.726562 194.558594 183.726562 Z M 194.558594 183.726562 "/>
</g>
<mask id="mask11">
  <g filter="url(#alpha)">
<rect x="0" y="0" width="548" height="406" style="fill:rgb(0%,0%,0%);fill-opacity:0.101961;stroke:none;"/>
  </g>
</mask>
<clipPath id="clip12">
  <rect x="0" y="0" width="548" height="406"/>
</clipPath>
<g id="surface38" clip-path="url(#clip12)">
<path style=" stroke:none;fill-rule:nonzero;fill:rgb(83.529412%,64.705882%,18.039216%);fill-opacity:1;" d="M 547.800781 68.640625 L 14.042969 81.640625 C 7.554688 98.34375 3.273438 117.230469 1.273438 136.804688 L 538.449219 136.804688 C 541.957031 125.304688 544.550781 113.546875 546.207031 101.640625 C 547.804688 90.136719 548.445312 79.003906 547.800781 68.640625 Z M 109.636719 111.226562 L 100.007812 111.226562 C 102.667969 111.226562 104.820312 113.382812 104.820312 116.042969 C 104.820312 118.703125 102.667969 120.859375 100.007812 120.859375 L 44.324219 120.859375 C 41.667969 120.859375 39.511719 118.703125 39.511719 116.042969 C 39.511719 113.382812 41.667969 111.226562 44.324219 111.226562 L 53.949219 111.226562 C 51.292969 111.226562 49.136719 109.066406 49.136719 106.40625 C 49.136719 103.746094 51.292969 101.589844 53.949219 101.589844 L 47.078125 101.589844 C 44.417969 101.589844 42.265625 99.433594 42.265625 96.773438 C 42.265625 94.113281 44.417969 91.953125 47.078125 91.953125 L 102.761719 91.953125 C 105.417969 91.953125 107.574219 94.113281 107.574219 96.773438 C 107.574219 99.433594 105.417969 101.589844 102.761719 101.589844 L 109.636719 101.589844 C 112.292969 101.589844 114.449219 103.746094 114.449219 106.40625 C 114.449219 109.066406 112.292969 111.226562 109.636719 111.226562 Z M 109.636719 111.226562 "/>
</g>
<linearGradient id="linear0" gradientUnits="userSpaceOnUse" x1="593.13" y1="855.9" x2="593.13" y2="67.88" gradientTransform="matrix(0.499544,0,0,0.5,-25.70155,-22.05)">
<stop offset="0" style="stop-color:rgb(50.196078%,50.196078%,50.196078%);stop-opacity:0.25098;"/>
<stop offset="0.54" style="stop-color:rgb(50.196078%,50.196078%,50.196078%);stop-opacity:0.121569;"/>
<stop offset="1" style="stop-color:rgb(50.196078%,50.196078%,50.196078%);stop-opacity:0.101961;"/>
</linearGradient>
<mask id="mask12">
  <g filter="url(#alpha)">
<rect x="0" y="0" width="548" height="406" style="fill:rgb(0%,0%,0%);fill-opacity:0.0313725;stroke:none;"/>
  </g>
</mask>
<clipPath id="clip13">
  <rect x="0" y="0" width="548" height="406"/>
</clipPath>
<g id="surface41" clip-path="url(#clip13)">
<path style=" stroke:none;fill-rule:nonzero;fill:rgb(0%,0%,0%);fill-opacity:1;" d="M 307.121094 233.148438 L 297.128906 328.648438 L 243.675781 345.648438 C 243.675781 345.648438 174.242188 332.648438 192.226562 295.148438 C 205.019531 268.476562 204.664062 220.804688 203.394531 195.503906 C 202.894531 185.234375 202.214844 178.648438 202.214844 178.648438 C 202.214844 178.648438 293.132812 99.148438 285.640625 170.648438 C 284.191406 184.496094 284.105469 195.320312 284.910156 203.78125 C 288.28125 239 307.121094 233.148438 307.121094 233.148438 Z M 307.121094 233.148438 "/>
</g>
<mask id="mask13">
  <g filter="url(#alpha)">
<rect x="0" y="0" width="548" height="406" style="fill:rgb(0%,0%,0%);fill-opacity:0.101961;stroke:none;"/>
  </g>
</mask>
<clipPath id="clip14">
  <rect x="0" y="0" width="548" height="406"/>
</clipPath>
<g id="surface44" clip-path="url(#clip14)">
<path style=" stroke:none;fill-rule:nonzero;fill:rgb(0%,0%,0%);fill-opacity:1;" d="M 285.640625 169.148438 C 284.191406 182.996094 284.105469 193.820312 284.910156 202.28125 C 258.636719 216.636719 226.25 213.347656 203.394531 194.003906 C 202.894531 183.734375 202.214844 177.148438 202.214844 177.148438 C 202.214844 177.148438 293.132812 97.648438 285.640625 169.148438 Z M 285.640625 169.148438 "/>
</g>
<mask id="mask14">
  <g filter="url(#alpha)">
<rect x="0" y="0" width="548" height="406" style="fill:rgb(0%,0%,0%);fill-opacity:0.0313725;stroke:none;"/>
  </g>
</mask>
<clipPath id="clip15">
  <rect x="0" y="0" width="548" height="406"/>
</clipPath>
<g id="surface47" clip-path="url(#clip15)">
<path style=" stroke:none;fill-rule:nonzero;fill:rgb(0%,0%,0%);fill-opacity:1;" d="M 322.605469 135.65625 C 322.605469 175.695312 290.175781 208.15625 250.171875 208.15625 C 210.167969 208.15625 177.738281 175.695312 177.738281 135.65625 C 177.738281 95.613281 210.167969 63.15625 250.171875 63.15625 C 290.175781 63.15625 322.605469 95.613281 322.605469 135.65625 Z M 322.605469 135.65625 "/>
</g>
<mask id="mask15">
  <g filter="url(#alpha)">
<rect x="0" y="0" width="548" height="406" style="fill:rgb(0%,0%,0%);fill-opacity:0.101961;stroke:none;"/>
  </g>
</mask>
<clipPath id="clip16">
  <rect x="0" y="0" width="548" height="406"/>
</clipPath>
<g id="surface50" clip-path="url(#clip16)">
<path style=" stroke:none;fill-rule:nonzero;fill:rgb(0%,0%,0%);fill-opacity:1;" d="M 334.09375 291.148438 C 329.597656 286.648438 299.128906 281.148438 299.128906 281.148438 C 300.125 293.148438 263.160156 311.648438 263.160156 311.648438 L 265.90625 405.648438 L 248.183594 405.648438 L 245.1875 321.148438 L 253.679688 309.148438 L 254.710938 308.074219 C 259.632812 302.96875 264.222656 297.550781 268.445312 291.855469 C 271.503906 288.140625 275.195312 283.636719 279.640625 278.164062 C 301.019531 251.863281 290.050781 220.789062 286.773438 214.363281 L 286.570312 213.964844 C 286.449219 213.730469 286.355469 213.550781 286.273438 213.421875 C 286.253906 213.371094 286.226562 213.328125 286.199219 213.285156 C 286.179688 213.253906 286.160156 213.21875 286.144531 213.183594 C 286.144531 213.183594 295.136719 211.183594 311.121094 228.183594 C 313.1875 230.441406 315.027344 232.898438 316.617188 235.515625 C 329.605469 256.375 338.054688 295.113281 334.09375 291.148438 Z M 334.09375 291.148438 "/>
</g>
<mask id="mask16">
  <g filter="url(#alpha)">
<rect x="0" y="0" width="548" height="406" style="fill:rgb(0%,0%,0%);fill-opacity:0.101961;stroke:none;"/>
  </g>
</mask>
<clipPath id="clip17">
  <rect x="0" y="0" width="548" height="406"/>
</clipPath>
<g id="surface53" clip-path="url(#clip17)">
<path style=" stroke:none;fill-rule:nonzero;fill:rgb(0%,0%,0%);fill-opacity:1;" d="M 130.78125 329.648438 C 130.78125 329.648438 154.257812 377.648438 155.507812 405.898438 "/>
</g>
<mask id="mask17">
  <g filter="url(#alpha)">
<rect x="0" y="0" width="548" height="406" style="fill:rgb(0%,0%,0%);fill-opacity:0.101961;stroke:none;"/>
  </g>
</mask>
<clipPath id="clip18">
  <rect x="0" y="0" width="548" height="406"/>
</clipPath>
<g id="surface56" clip-path="url(#clip18)">
<path style=" stroke:none;fill-rule:nonzero;fill:rgb(0%,0%,0%);fill-opacity:1;" d="M 386.546875 357.15625 L 379.804688 405.90625 L 386.546875 405.90625 Z M 386.546875 357.15625 "/>
</g>
<mask id="mask18">
  <g filter="url(#alpha)">
<rect x="0" y="0" width="548" height="406" style="fill:rgb(0%,0%,0%);fill-opacity:0.101961;stroke:none;"/>
  </g>
</mask>
<clipPath id="clip19">
  <rect x="0" y="0" width="548" height="406"/>
</clipPath>
<g id="surface59" clip-path="url(#clip19)">
<path style=" stroke:none;fill-rule:nonzero;fill:rgb(0%,0%,0%);fill-opacity:1;" d="M 136.027344 405.898438 L 173.242188 321.148438 C 173.242188 321.148438 183.730469 301.148438 186.230469 281.148438 C 188.726562 261.148438 202.214844 229.648438 202.214844 229.648438 C 202.214844 229.648438 235.683594 187.148438 251.171875 193.148438 C 266.65625 199.148438 237.683594 221.648438 237.683594 221.648438 C 237.683594 221.648438 280.144531 238.148438 251.171875 287.148438 C 222.195312 336.148438 221.699219 327.148438 221.699219 327.148438 L 207.460938 405.898438 Z M 136.027344 405.898438 "/>
</g>
<mask id="mask19">
  <g filter="url(#alpha)">
<rect x="0" y="0" width="548" height="406" style="fill:rgb(0%,0%,0%);fill-opacity:0.14902;stroke:none;"/>
  </g>
</mask>
<clipPath id="clip20">
  <rect x="0" y="0" width="548" height="406"/>
</clipPath>
<g id="surface62" clip-path="url(#clip20)">
<path style=" stroke:none;fill-rule:nonzero;fill:rgb(100%,100%,100%);fill-opacity:1;" d="M 273.898438 94.90625 C 273.898438 95.734375 273.230469 96.40625 272.402344 96.40625 C 271.574219 96.40625 270.902344 95.734375 270.902344 94.90625 C 270.902344 94.078125 271.574219 93.40625 272.402344 93.40625 C 273.230469 93.40625 273.898438 94.078125 273.898438 94.90625 Z M 273.898438 94.90625 "/>
</g>
<mask id="mask20">
  <g filter="url(#alpha)">
<rect x="0" y="0" width="548" height="406" style="fill:rgb(0%,0%,0%);fill-opacity:0.14902;stroke:none;"/>
  </g>
</mask>
<clipPath id="clip21">
  <rect x="0" y="0" width="548" height="406"/>
</clipPath>
<g id="surface65" clip-path="url(#clip21)">
<path style=" stroke:none;fill-rule:nonzero;fill:rgb(100%,100%,100%);fill-opacity:1;" d="M 266.90625 97.90625 C 266.90625 98.734375 266.234375 99.40625 265.40625 99.40625 C 264.582031 99.40625 263.910156 98.734375 263.910156 97.90625 C 263.910156 97.078125 264.582031 96.40625 265.40625 96.40625 C 266.234375 96.40625 266.90625 97.078125 266.90625 97.90625 Z M 266.90625 97.90625 "/>
</g>
<mask id="mask21">
  <g filter="url(#alpha)">
<rect x="0" y="0" width="548" height="406" style="fill:rgb(0%,0%,0%);fill-opacity:0.101961;stroke:none;"/>
  </g>
</mask>
<clipPath id="clip22">
  <rect x="0" y="0" width="548" height="406"/>
</clipPath>
<g id="surface68" clip-path="url(#clip22)">
<path style=" stroke:none;fill-rule:nonzero;fill:rgb(0%,0%,0%);fill-opacity:1;" d="M 198.714844 44.289062 C 205.941406 41.949219 213.964844 42.453125 220.898438 39.34375 C 230.273438 35.136719 236.183594 24.945312 245.914062 21.644531 C 250.25 20.175781 254.957031 20.230469 259.507812 20.699219 C 274.140625 22.222656 288.078125 27.734375 299.800781 36.636719 C 309.449219 43.980469 318.5 53.996094 330.59375 54.78125 C 333.515625 54.96875 336.488281 54.585938 339.351562 55.199219 C 346.761719 56.789062 351.203125 64.433594 353.335938 71.699219 C 358.332031 89.125 355.472656 107.859375 345.515625 123 C 342.777344 127.101562 339.441406 131.113281 338.765625 136 C 338.105469 140.789062 340.144531 145.753906 338.957031 150.445312 C 337.957031 154.328125 334.960938 157.320312 332.042969 160.074219 C 321.96875 169.613281 311.671875 178.902344 301.15625 187.949219 C 295.691406 170.570312 303.707031 151.855469 302.460938 133.679688 C 301.960938 126.601562 299.460938 118.871094 293.222656 115.53125 C 287.382812 112.410156 279.917969 114.03125 274.011719 111.03125 C 267.414062 107.703125 264.707031 99.828125 259.722656 94.378906 C 251.230469 85.078125 236.488281 83.878906 224.613281 88.078125 C 212.742188 92.28125 203.035156 100.921875 193.644531 109.34375 L 176.574219 124.671875 C 173.242188 120.910156 175.769531 115.140625 177.574219 110.441406 C 180.261719 103.394531 180.851562 95.800781 180.671875 88.320312 C 180.523438 82.320312 178.457031 76.394531 178.578125 70.554688 C 178.816406 59.035156 187.949219 47.773438 198.714844 44.289062 Z M 198.714844 44.289062 "/>
</g>
</defs>
<g id="surface1">
<use xlink:href="#surface26" mask="url(#mask0)"/>
<use xlink:href="#surface29" mask="url(#mask8)"/>
<use xlink:href="#surface32" mask="url(#mask9)"/>
<use xlink:href="#surface35" mask="url(#mask10)"/>
<use xlink:href="#surface38" mask="url(#mask11)"/>
<path style=" stroke:none;fill-rule:nonzero;fill:url(#linear0);" d="M 468.914062 405.648438 C 468.914062 405.648438 446.652344 283.449219 404.207031 263.621094 C 368.238281 246.804688 329.34375 235.46875 318.285156 232.394531 C 316.632812 229.730469 314.722656 227.238281 312.585938 224.949219 C 297.46875 209.15625 288.386719 209.449219 286.917969 209.644531 C 286.222656 206.511719 285.71875 203.339844 285.417969 200.144531 C 285.375 199.644531 285.328125 199.179688 285.289062 198.683594 L 285.417969 198.621094 C 285.328125 197.675781 285.25 196.699219 285.179688 195.695312 C 291.351562 192.398438 297.03125 188.257812 302.058594 183.390625 C 302.125 183.605469 302.179688 183.820312 302.25 184.039062 C 313.144531 174.824219 323.8125 165.355469 334.253906 155.640625 C 337.253906 152.835938 340.398438 149.789062 341.417969 145.835938 C 341.746094 144.472656 341.871094 143.074219 341.792969 141.675781 C 341.929688 138.675781 341.21875 135.609375 341.097656 132.570312 C 341.097656 132.070312 341.152344 131.605469 341.21875 131.128906 C 341.917969 126.15625 345.375 122.070312 348.210938 117.894531 C 355.300781 107.34375 359 94.878906 358.816406 82.164062 C 358.894531 76.074219 358.054688 70.003906 356.320312 64.164062 C 354.105469 56.753906 349.5 48.96875 341.832031 47.351562 C 338.867188 46.726562 335.785156 47.113281 332.757812 46.921875 C 320.222656 46.121094 310.839844 35.921875 300.84375 28.445312 C 288.644531 19.367188 274.21875 13.761719 259.09375 12.226562 C 254.371094 11.726562 249.496094 11.691406 245.007812 13.191406 C 234.921875 16.550781 228.796875 26.925781 219.082031 31.191406 C 211.898438 34.359375 203.59375 33.84375 196.101562 36.226562 C 184.945312 39.773438 175.480469 51.226562 175.230469 62.988281 C 175.230469 63.425781 175.230469 63.859375 175.230469 64.296875 C 175.230469 64.371094 175.230469 64.445312 175.230469 64.515625 C 175.105469 70.460938 177.226562 76.515625 177.398438 82.601562 C 177.398438 83.148438 177.40625 83.703125 177.421875 84.253906 C 177.367188 90.824219 176.582031 97.414062 174.191406 103.589844 C 172.902344 106.914062 171.242188 110.765625 171.511719 114.089844 C 171.363281 116.125 171.757812 118.035156 173.171875 119.589844 L 175.585938 117.460938 C 174.777344 121.84375 174.371094 126.292969 174.371094 130.75 C 174.371094 153.21875 184.582031 173.339844 200.6875 186.878906 C 200.78125 188.375 200.871094 189.980469 200.957031 191.691406 C 201.335938 199.101562 201.636719 208.394531 201.550781 218.523438 L 177.992188 240.199219 L 117.429688 267.699219 C 117.429688 267.699219 62.039062 279.410156 73.96875 357.296875 L 79.664062 405.65625 L 130.230469 405.65625 L 130.117188 405.910156 L 205.171875 405.910156 L 205.21875 405.65625 L 383.792969 405.65625 L 383.761719 405.910156 L 390.753906 405.910156 L 390.753906 405.65625 Z M 287.363281 210.886719 C 288.894531 214.054688 290.097656 217.371094 290.960938 220.785156 C 289.191406 217.5 287.886719 213.988281 287.078125 210.34375 L 287.152344 210.480469 Z M 201.53125 220.886719 C 201.53125 221.839844 201.515625 222.800781 201.480469 223.769531 L 201.359375 223.941406 C 201.351562 222.910156 201.410156 221.882812 201.53125 220.859375 Z M 201.53125 220.886719 "/>
<path style=" stroke:none;fill-rule:nonzero;fill:rgb(99.215686%,76.078431%,80%);fill-opacity:1;" d="M 307.121094 233.148438 L 297.128906 328.648438 L 243.675781 345.648438 C 243.675781 345.648438 174.242188 332.648438 192.226562 295.148438 C 205.019531 268.476562 204.664062 220.804688 203.394531 195.503906 C 202.894531 185.234375 202.214844 178.648438 202.214844 178.648438 C 202.214844 178.648438 293.132812 99.148438 285.640625 170.648438 C 284.191406 184.496094 284.105469 195.320312 284.910156 203.78125 C 288.28125 239 307.121094 233.148438 307.121094 233.148438 Z M 307.121094 233.148438 "/>
<use xlink:href="#surface41" mask="url(#mask12)"/>
<use xlink:href="#surface44" mask="url(#mask13)"/>
<path style=" stroke:none;fill-rule:nonzero;fill:rgb(99.215686%,76.078431%,80%);fill-opacity:1;" d="M 322.605469 135.65625 C 322.605469 175.695312 290.175781 208.15625 250.171875 208.15625 C 210.167969 208.15625 177.738281 175.695312 177.738281 135.65625 C 177.738281 95.613281 210.167969 63.15625 250.171875 63.15625 C 290.175781 63.15625 322.605469 95.613281 322.605469 135.65625 Z M 322.605469 135.65625 "/>
<use xlink:href="#surface47" mask="url(#mask14)"/>
<path style=" stroke:none;fill-rule:nonzero;fill:rgb(83.529412%,64.705882%,18.039216%);fill-opacity:1;" d="M 461.976562 405.648438 L 86.320312 405.648438 L 80.828125 358.148438 C 69.335938 281.648438 122.789062 270.148438 122.789062 270.148438 L 181.234375 243.148438 L 204.464844 221.398438 C 196.96875 249.898438 253.667969 309.148438 253.667969 309.148438 C 254.03125 308.8125 254.378906 308.453125 254.703125 308.074219 C 256.230469 306.40625 259.882812 302.226562 268.433594 291.855469 C 271.492188 288.140625 275.183594 283.636719 279.628906 278.164062 C 301.011719 251.863281 290.039062 220.789062 286.761719 214.363281 L 286.558594 213.964844 C 286.433594 213.734375 286.339844 213.550781 286.265625 213.421875 C 286.242188 213.371094 286.21875 213.328125 286.1875 213.285156 C 286.167969 213.253906 286.148438 213.21875 286.132812 213.183594 L 313.609375 234.683594 C 313.609375 234.683594 314.664062 234.964844 316.605469 235.515625 C 327.296875 238.515625 364.851562 249.671875 399.53125 266.183594 C 440.5 285.648438 461.976562 405.648438 461.976562 405.648438 Z M 461.976562 405.648438 "/>
<path style=" stroke:none;fill-rule:nonzero;fill:rgb(83.529412%,64.705882%,18.039216%);fill-opacity:1;" d="M 334.09375 291.148438 C 329.597656 286.648438 299.128906 281.148438 299.128906 281.148438 C 300.125 293.148438 263.160156 311.648438 263.160156 311.648438 L 265.90625 405.648438 L 248.183594 405.648438 L 245.1875 321.148438 L 253.679688 309.148438 L 254.710938 308.074219 C 259.632812 302.96875 264.222656 297.550781 268.445312 291.855469 C 271.503906 288.140625 275.195312 283.636719 279.640625 278.164062 C 301.019531 251.863281 290.050781 220.789062 286.773438 214.363281 L 286.570312 213.964844 C 286.449219 213.730469 286.355469 213.550781 286.273438 213.421875 C 286.253906 213.371094 286.226562 213.328125 286.199219 213.285156 C 286.179688 213.253906 286.160156 213.21875 286.144531 213.183594 C 286.144531 213.183594 295.136719 211.183594 311.121094 228.183594 C 313.1875 230.441406 315.027344 232.898438 316.617188 235.515625 C 329.605469 256.375 338.054688 295.113281 334.09375 291.148438 Z M 334.09375 291.148438 "/>
<use xlink:href="#surface50" mask="url(#mask15)"/>
<use xlink:href="#surface53" mask="url(#mask16)"/>
<use xlink:href="#surface56" mask="url(#mask17)"/>
<use xlink:href="#surface59" mask="url(#mask18)"/>
<path style=" stroke:none;fill-rule:nonzero;fill:rgb(99.215686%,76.078431%,80%);fill-opacity:1;" d="M 135.027344 405.898438 L 172.242188 321.148438 C 172.242188 321.148438 182.734375 301.148438 185.230469 281.148438 C 186.820312 268.433594 192.847656 251.070312 197.03125 240.105469 C 199.757812 232.9375 203.773438 226.328125 208.878906 220.605469 C 219.699219 208.484375 239.351562 188.941406 250.171875 193.140625 C 265.65625 199.140625 236.683594 221.640625 236.683594 221.640625 C 236.683594 221.640625 279.144531 238.140625 250.171875 287.140625 C 221.199219 336.140625 220.699219 327.140625 220.699219 327.140625 L 206.460938 405.890625 Z M 135.027344 405.898438 "/>
<use xlink:href="#surface62" mask="url(#mask19)"/>
<use xlink:href="#surface65" mask="url(#mask20)"/>
<use xlink:href="#surface68" mask="url(#mask21)"/>
<path style=" stroke:none;fill-rule:nonzero;fill:rgb(52.54902%,35.294118%,38.039216%);fill-opacity:1;" d="M 198.714844 42.789062 C 205.941406 40.449219 213.964844 40.953125 220.898438 37.84375 C 230.273438 33.636719 236.183594 23.445312 245.914062 20.144531 C 250.25 18.675781 254.957031 18.730469 259.507812 19.199219 C 274.140625 20.722656 288.078125 26.234375 299.800781 35.136719 C 309.449219 42.480469 318.5 52.496094 330.59375 53.28125 C 333.515625 53.46875 336.488281 53.085938 339.351562 53.699219 C 346.761719 55.289062 351.203125 62.933594 353.335938 70.199219 C 358.332031 87.625 355.472656 106.359375 345.515625 121.5 C 342.777344 125.601562 339.441406 129.613281 338.765625 134.5 C 338.105469 139.289062 340.144531 144.253906 338.957031 148.945312 C 337.957031 152.828125 334.960938 155.820312 332.042969 158.574219 C 321.96875 168.113281 311.671875 177.402344 301.15625 186.449219 C 295.691406 169.070312 303.707031 150.355469 302.460938 132.179688 C 301.960938 125.101562 299.460938 117.371094 293.222656 114.03125 C 287.382812 110.910156 279.917969 112.53125 274.011719 109.53125 C 267.414062 106.203125 264.707031 98.328125 259.722656 92.878906 C 251.230469 83.578125 236.488281 82.378906 224.613281 86.578125 C 212.742188 90.78125 203.035156 99.421875 193.644531 107.84375 L 176.574219 123.171875 C 173.242188 119.410156 175.769531 113.640625 177.574219 108.941406 C 180.261719 101.894531 180.851562 94.300781 180.671875 86.820312 C 180.523438 80.820312 178.457031 74.894531 178.578125 69.054688 C 178.816406 57.535156 187.949219 46.273438 198.714844 42.789062 Z M 198.714844 42.789062 "/>
</g>
</svg>
