<?xml version="1.0" encoding="UTF-8"?>
<svg xmlns="http://www.w3.org/2000/svg" xmlns:xlink="http://www.w3.org/1999/xlink" width="506pt" height="364pt" viewBox="0 0 506 364" version="1.1">
<defs>
<filter id="alpha" filterUnits="objectBoundingBox" x="0%" y="0%" width="100%" height="100%">
  <feColorMatrix type="matrix" in="SourceGraphic" values="0 0 0 0 1 0 0 0 0 1 0 0 0 0 1 0 0 0 1 0"/>
</filter>
<mask id="mask0">
  <g filter="url(#alpha)">
<rect x="0" y="0" width="506" height="364" style="fill:rgb(0%,0%,0%);fill-opacity:0.2;stroke:none;"/>
  </g>
</mask>
<clipPath id="clip1">
  <rect x="0" y="0" width="506" height="364"/>
</clipPath>
<g id="surface5" clip-path="url(#clip1)">
<path style=" stroke:none;fill-rule:nonzero;fill:rgb(83.529412%,64.705882%,18.039216%);fill-opacity:1;" d="M 201.414062 169.734375 C 201.414062 191.855469 183.484375 209.789062 161.371094 209.789062 C 139.257812 209.789062 121.332031 191.855469 121.332031 169.734375 C 121.332031 147.613281 139.257812 129.679688 161.371094 129.679688 C 183.484375 129.679688 201.414062 147.613281 201.414062 169.734375 Z M 201.414062 169.734375 "/>
</g>
<mask id="mask1">
  <g filter="url(#alpha)">
<rect x="0" y="0" width="506" height="364" style="fill:rgb(0%,0%,0%);fill-opacity:0.2;stroke:none;"/>
  </g>
</mask>
<clipPath id="clip2">
  <rect x="0" y="0" width="506" height="364"/>
</clipPath>
<g id="surface8" clip-path="url(#clip2)">
<path style=" stroke:none;fill-rule:nonzero;fill:rgb(83.529412%,64.705882%,18.039216%);fill-opacity:1;" d="M 189.570312 169.734375 C 189.570312 185.3125 176.945312 197.941406 161.371094 197.941406 C 145.800781 197.941406 133.175781 185.3125 133.175781 169.734375 C 133.175781 154.15625 145.800781 141.523438 161.371094 141.523438 C 176.945312 141.523438 189.570312 154.15625 189.570312 169.734375 Z M 189.570312 169.734375 "/>
</g>
<mask id="mask2">
  <g filter="url(#alpha)">
<rect x="0" y="0" width="506" height="364" style="fill:rgb(0%,0%,0%);fill-opacity:0.101961;stroke:none;"/>
  </g>
</mask>
<clipPath id="clip3">
  <rect x="0" y="0" width="506" height="364"/>
</clipPath>
<g id="surface11" clip-path="url(#clip3)">
<path style=" stroke:none;fill-rule:nonzero;fill:rgb(0%,0%,0%);fill-opacity:1;" d="M 327.285156 58.179688 C 327.285156 58.179688 329.710938 75.175781 319.3125 78.992188 C 308.910156 82.808594 312.722656 88.011719 312.722656 88.011719 L 328.324219 95.644531 L 344.96875 90.441406 L 350.515625 82.113281 C 350.515625 82.113281 341.503906 80.035156 343.929688 73.789062 C 346.355469 67.546875 347.050781 65.464844 347.050781 65.464844 Z M 327.285156 58.179688 "/>
</g>
<mask id="mask3">
  <g filter="url(#alpha)">
<rect x="0" y="0" width="506" height="364" style="fill:rgb(0%,0%,0%);fill-opacity:0.101961;stroke:none;"/>
  </g>
</mask>
<clipPath id="clip4">
  <rect x="0" y="0" width="506" height="364"/>
</clipPath>
<g id="surface14" clip-path="url(#clip4)">
<path style=" stroke:none;fill-rule:nonzero;fill:rgb(0%,0%,0%);fill-opacity:1;" d="M 370.976562 106.742188 C 370.976562 106.742188 368.546875 138.65625 369.242188 140.042969 C 369.933594 141.429688 369.242188 189.644531 369.242188 189.644531 C 369.242188 189.644531 374.09375 215.660156 367.855469 217.046875 C 361.613281 218.4375 363 187.910156 363 187.910156 L 356.757812 147.675781 L 357.453125 107.785156 Z M 370.976562 106.742188 "/>
</g>
</defs>
<g id="surface1">
<path style=" stroke:none;fill-rule:nonzero;fill:rgb(24.705882%,23.921569%,33.72549%);fill-opacity:1;" d="M 505.945312 364.140625 C 479.875 360.324219 454.804688 357.03125 430.730469 354.265625 L 440.25 338.855469 C 437.039062 337.90625 422.941406 346.691406 422.941406 346.691406 L 435.4375 301.886719 C 419.296875 303.445312 411.082031 349.210938 411.082031 349.210938 L 393.054688 333.640625 L 401.78125 351.089844 C 328.101562 343.484375 264.46875 340.496094 210.949219 340.148438 L 219.09375 326.960938 C 215.886719 326.011719 201.785156 334.796875 201.785156 334.796875 L 214.28125 289.996094 C 198.140625 291.550781 189.929688 337.316406 189.929688 337.316406 L 171.898438 321.746094 L 181.140625 340.230469 C 136.273438 340.773438 99.679688 343.171875 71.4375 345.964844 C 79.679688 325.398438 107.671875 305.929688 107.671875 305.929688 C 86.296875 311.15625 75.082031 320.023438 69.222656 328.316406 C 68.773438 302.871094 71.789062 255.714844 94.175781 203.597656 C 94.175781 203.597656 49.984375 283.910156 55.613281 337.984375 L 56.285156 347.585938 C 18.832031 351.902344 0 356.488281 0 356.488281 Z M 505.945312 364.140625 "/>
<path style=" stroke:none;fill-rule:nonzero;fill:rgb(24.705882%,23.921569%,33.72549%);fill-opacity:1;" d="M 269.027344 14.585938 L 269.027344 339.132812 C 269.019531 347.179688 262.496094 353.703125 254.449219 353.707031 L 122.746094 353.707031 C 118.878906 353.710938 115.167969 352.179688 112.429688 349.445312 C 109.695312 346.710938 108.160156 343 108.164062 339.132812 L 108.164062 14.585938 C 108.164062 6.53125 114.691406 0 122.746094 0 L 142.453125 0 L 142.453125 2.527344 C 142.453125 9.160156 147.828125 14.539062 154.457031 14.539062 L 221.441406 14.539062 C 224.003906 14.546875 226.5 13.722656 228.558594 12.195312 C 228.976562 11.894531 229.371094 11.5625 229.742188 11.207031 C 232.109375 8.941406 233.449219 5.804688 233.445312 2.527344 L 233.445312 0 L 254.449219 0 C 262.503906 -0.00390625 269.03125 6.527344 269.027344 14.585938 Z M 269.027344 14.585938 "/>
<path style=" stroke:none;fill-rule:nonzero;fill:rgb(94.901961%,94.901961%,94.901961%);fill-opacity:1;" d="M 148.359375 54.074219 C 148.359375 56.011719 146.792969 57.578125 144.855469 57.578125 C 142.921875 57.578125 141.351562 56.011719 141.351562 54.074219 C 141.351562 52.136719 142.921875 50.570312 144.855469 50.570312 C 146.792969 50.570312 148.359375 52.136719 148.359375 54.074219 Z M 148.359375 54.074219 "/>
<path style=" stroke:none;fill-rule:nonzero;fill:rgb(83.529412%,64.705882%,18.039216%);fill-opacity:1;" d="M 229.742188 11.207031 C 229.371094 11.5625 228.976562 11.894531 228.558594 12.195312 C 237.234375 27.46875 251.914062 38.402344 269.027344 42.332031 L 269.027344 40.769531 C 252.378906 36.839844 238.132812 26.121094 229.742188 11.207031 Z M 229.742188 11.207031 "/>
<path style=" stroke:none;fill-rule:nonzero;fill:rgb(83.529412%,64.705882%,18.039216%);fill-opacity:1;" d="M 199.804688 14.539062 L 198.164062 14.539062 C 210.023438 44.6875 237.015625 66.246094 269.027344 71.144531 L 269.027344 69.589844 C 237.859375 64.75 211.550781 43.824219 199.804688 14.539062 Z M 199.804688 14.539062 "/>
<path style=" stroke:none;fill-rule:nonzero;fill:rgb(83.529412%,64.705882%,18.039216%);fill-opacity:1;" d="M 169.566406 14.539062 L 167.984375 14.539062 C 181.210938 60.472656 221.125 94.664062 269.027344 100.21875 L 269.027344 98.691406 C 221.957031 93.164062 182.730469 59.621094 169.566406 14.539062 Z M 169.566406 14.539062 "/>
<path style=" stroke:none;fill-rule:nonzero;fill:rgb(94.901961%,94.901961%,94.901961%);fill-opacity:1;" d="M 133.34375 80.019531 L 132.433594 80.019531 L 132.433594 79.109375 L 132.253906 79.109375 L 132.253906 80.019531 L 131.34375 80.019531 L 131.34375 80.199219 L 132.253906 80.199219 L 132.253906 81.113281 L 132.433594 81.113281 L 132.433594 80.199219 L 133.34375 80.199219 Z M 133.34375 80.019531 "/>
<path style=" stroke:none;fill-rule:nonzero;fill:rgb(94.901961%,94.901961%,94.901961%);fill-opacity:1;" d="M 194.90625 34.457031 L 193.992188 34.457031 L 193.992188 33.546875 L 193.816406 33.546875 L 193.816406 34.457031 L 192.902344 34.457031 L 192.902344 34.636719 L 193.816406 34.636719 L 193.816406 35.550781 L 193.992188 35.550781 L 193.992188 34.636719 L 194.90625 34.636719 Z M 194.90625 34.457031 "/>
<path style=" stroke:none;fill-rule:nonzero;fill:rgb(94.901961%,94.901961%,94.901961%);fill-opacity:1;" d="M 142.355469 116.070312 L 141.441406 116.070312 L 141.441406 115.15625 L 141.265625 115.15625 L 141.265625 116.070312 L 140.351562 116.070312 L 140.351562 116.25 L 141.265625 116.25 L 141.265625 117.160156 L 141.441406 117.160156 L 141.441406 116.25 L 142.355469 116.25 Z M 142.355469 116.070312 "/>
<path style=" stroke:none;fill-rule:nonzero;fill:rgb(94.901961%,94.901961%,94.901961%);fill-opacity:1;" d="M 184.394531 89.535156 L 183.484375 89.535156 L 183.484375 88.621094 L 183.304688 88.621094 L 183.304688 89.535156 L 182.394531 89.535156 L 182.394531 89.710938 L 183.304688 89.710938 L 183.304688 90.625 L 183.484375 90.625 L 183.484375 89.710938 L 184.394531 89.710938 Z M 184.394531 89.535156 "/>
<path style=" stroke:none;fill-rule:nonzero;fill:rgb(94.901961%,94.901961%,94.901961%);fill-opacity:1;" d="M 244.453125 106.058594 L 243.542969 106.058594 L 243.542969 105.144531 L 243.363281 105.144531 L 243.363281 106.058594 L 242.453125 106.058594 L 242.453125 106.234375 L 243.363281 106.234375 L 243.363281 107.148438 L 243.542969 107.148438 L 243.542969 106.234375 L 244.453125 106.234375 Z M 244.453125 106.058594 "/>
<path style=" stroke:none;fill-rule:nonzero;fill:rgb(100%,39.607843%,51.764706%);fill-opacity:1;" d="M 235.945312 62.585938 C 235.945312 63.691406 235.050781 64.589844 233.945312 64.589844 C 232.839844 64.589844 231.941406 63.691406 231.941406 62.585938 C 231.941406 61.480469 232.839844 60.582031 233.945312 60.582031 C 235.050781 60.582031 235.945312 61.480469 235.945312 62.585938 Z M 235.945312 62.585938 "/>
<path style=" stroke:none;fill-rule:nonzero;fill:rgb(90.196078%,90.196078%,90.196078%);fill-opacity:1;" d="M 162.222656 109.550781 L 161.085938 109.726562 C 161.441406 112 161.722656 114.320312 161.929688 116.621094 L 163.074219 116.519531 C 162.871094 114.191406 162.582031 111.847656 162.222656 109.550781 Z M 162.222656 109.550781 "/>
<path style=" stroke:none;fill-rule:nonzero;fill:rgb(90.196078%,90.196078%,90.196078%);fill-opacity:1;" d="M 159.117188 95.863281 L 158.015625 96.195312 C 158.679688 98.398438 159.277344 100.660156 159.78125 102.90625 L 160.90625 102.652344 C 160.390625 100.378906 159.785156 98.09375 159.117188 95.863281 Z M 159.117188 95.863281 "/>
<path style=" stroke:none;fill-rule:nonzero;fill:rgb(90.196078%,90.196078%,90.196078%);fill-opacity:1;" d="M 154.15625 82.734375 L 153.109375 83.214844 C 154.070312 85.3125 154.972656 87.464844 155.789062 89.617188 L 156.863281 89.210938 C 156.039062 87.035156 155.132812 84.851562 154.15625 82.734375 Z M 154.15625 82.734375 "/>
<path style=" stroke:none;fill-rule:nonzero;fill:rgb(90.196078%,90.196078%,90.196078%);fill-opacity:1;" d="M 147.449219 70.425781 L 146.476562 71.042969 C 147.714844 72.984375 148.898438 74.996094 150 77.015625 L 151.011719 76.464844 C 149.902344 74.421875 148.699219 72.390625 147.449219 70.425781 Z M 147.449219 70.425781 "/>
<path style=" stroke:none;fill-rule:nonzero;fill:rgb(90.196078%,90.196078%,90.196078%);fill-opacity:1;" d="M 139.109375 59.144531 L 138.234375 59.890625 C 139.726562 61.644531 141.179688 63.476562 142.550781 65.328125 L 143.46875 64.644531 C 142.089844 62.769531 140.621094 60.917969 139.109375 59.144531 Z M 139.109375 59.144531 "/>
<path style=" stroke:none;fill-rule:nonzero;fill:rgb(90.196078%,90.196078%,90.196078%);fill-opacity:1;" d="M 129.3125 49.101562 L 128.546875 49.957031 C 130.265625 51.496094 131.953125 53.113281 133.558594 54.761719 L 134.386719 53.953125 C 132.757812 52.285156 131.050781 50.65625 129.3125 49.101562 Z M 129.3125 49.101562 "/>
<path style=" stroke:none;fill-rule:nonzero;fill:rgb(90.196078%,90.196078%,90.196078%);fill-opacity:1;" d="M 118.238281 40.480469 L 117.59375 41.433594 C 119.507812 42.71875 121.398438 44.089844 123.214844 45.507812 L 123.925781 44.601562 C 122.082031 43.167969 120.171875 41.78125 118.238281 40.480469 Z M 118.238281 40.480469 "/>
<path style=" stroke:none;fill-rule:nonzero;fill:rgb(90.196078%,90.196078%,90.196078%);fill-opacity:1;" d="M 108.164062 34.492188 L 108.164062 35.792969 C 109.359375 36.421875 110.546875 37.074219 111.707031 37.746094 L 112.285156 36.75 C 110.933594 35.96875 109.558594 35.214844 108.164062 34.492188 Z M 108.164062 34.492188 "/>
<path style=" stroke:none;fill-rule:nonzero;fill:rgb(90.196078%,90.196078%,90.196078%);fill-opacity:1;" d="M 161.964844 217.699219 C 162.148438 216.582031 162.320312 215.4375 162.472656 214.304688 L 163.613281 214.453125 C 163.460938 215.601562 163.289062 216.757812 163.097656 217.890625 Z M 161.964844 217.699219 "/>
<path style=" stroke:none;fill-rule:nonzero;fill:rgb(90.196078%,90.196078%,90.196078%);fill-opacity:1;" d="M 158.753906 231.207031 L 159.855469 231.550781 C 160.546875 229.328125 161.171875 227.046875 161.710938 224.777344 L 160.589844 224.511719 C 160.054688 226.757812 159.441406 229.007812 158.753906 231.207031 Z M 158.753906 231.207031 "/>
<path style=" stroke:none;fill-rule:nonzero;fill:rgb(90.196078%,90.196078%,90.196078%);fill-opacity:1;" d="M 153.730469 244.140625 L 154.773438 244.632812 C 155.765625 242.523438 156.695312 240.355469 157.539062 238.179688 L 156.464844 237.761719 C 155.632812 239.910156 154.714844 242.058594 153.730469 244.140625 Z M 153.730469 244.140625 "/>
<path style=" stroke:none;fill-rule:nonzero;fill:rgb(90.196078%,90.196078%,90.196078%);fill-opacity:1;" d="M 146.96875 256.277344 L 147.933594 256.902344 C 149.207031 254.949219 150.425781 252.925781 151.5625 250.890625 L 150.558594 250.328125 C 149.4375 252.339844 148.226562 254.339844 146.96875 256.277344 Z M 146.96875 256.277344 "/>
<path style=" stroke:none;fill-rule:nonzero;fill:rgb(90.196078%,90.196078%,90.196078%);fill-opacity:1;" d="M 138.601562 267.359375 L 139.472656 268.117188 C 141.003906 266.351562 142.488281 264.511719 143.894531 262.652344 L 142.972656 261.964844 C 141.585938 263.800781 140.117188 265.617188 138.601562 267.359375 Z M 138.601562 267.359375 "/>
<path style=" stroke:none;fill-rule:nonzero;fill:rgb(90.196078%,90.196078%,90.196078%);fill-opacity:1;" d="M 128.804688 277.195312 L 129.5625 278.0625 C 131.320312 276.527344 133.042969 274.90625 134.6875 273.257812 L 133.871094 272.445312 C 132.246094 274.074219 130.542969 275.671875 128.804688 277.195312 Z M 128.804688 277.195312 "/>
<path style=" stroke:none;fill-rule:nonzero;fill:rgb(90.196078%,90.196078%,90.196078%);fill-opacity:1;" d="M 117.765625 285.601562 L 118.402344 286.566406 C 120.34375 285.28125 122.277344 283.914062 124.128906 282.503906 L 123.429688 281.585938 C 121.597656 282.984375 119.691406 284.335938 117.765625 285.601562 Z M 117.765625 285.601562 "/>
<path style=" stroke:none;fill-rule:nonzero;fill:rgb(90.196078%,90.196078%,90.196078%);fill-opacity:1;" d="M 112.414062 290.222656 C 111.023438 291.007812 109.601562 291.769531 108.164062 292.492188 L 108.164062 291.199219 C 109.40625 290.570312 110.636719 289.902344 111.84375 289.226562 Z M 112.414062 290.222656 "/>
<path style=" stroke:none;fill-rule:nonzero;fill:rgb(90.196078%,90.196078%,90.196078%);fill-opacity:1;" d="M 162.300781 123.722656 L 163.453125 123.703125 C 163.472656 124.863281 163.472656 126.03125 163.457031 127.175781 L 162.304688 127.15625 C 162.324219 126.027344 162.320312 124.871094 162.300781 123.722656 Z M 162.300781 123.722656 "/>
<path style=" stroke:none;fill-rule:nonzero;fill:rgb(100%,100%,100%);fill-opacity:1;" d="M 113.21875 151.023438 L 230.941406 151.023438 C 249.183594 151.023438 263.972656 165.816406 263.972656 184.070312 L 263.972656 188.441406 L 146.253906 188.441406 C 128.007812 188.441406 113.21875 173.648438 113.21875 155.398438 Z M 113.21875 151.023438 "/>
<path style=" stroke:none;fill-rule:nonzero;fill:rgb(94.901961%,94.901961%,94.901961%);fill-opacity:1;" d="M 191.347656 353.246094 C 191.230469 353.058594 188.523438 348.535156 187.585938 339.140625 C 186.722656 330.523438 187.277344 315.996094 194.808594 295.730469 C 209.074219 257.34375 191.519531 226.371094 191.339844 226.0625 L 192.207031 225.558594 C 192.253906 225.636719 196.78125 233.535156 199.457031 246.109375 C 202.996094 262.78125 201.707031 280.113281 195.746094 296.082031 C 181.503906 334.402344 192.09375 352.546875 192.203125 352.722656 Z M 191.347656 353.246094 "/>
<path style=" stroke:none;fill-rule:nonzero;fill:rgb(83.529412%,64.705882%,18.039216%);fill-opacity:1;" d="M 192.273438 217.296875 C 192.273438 220.894531 189.363281 223.808594 185.769531 223.808594 C 182.175781 223.808594 179.261719 220.894531 179.261719 217.296875 C 179.261719 213.703125 182.175781 210.789062 185.769531 210.789062 C 189.363281 210.789062 192.273438 213.703125 192.273438 217.296875 Z M 192.273438 217.296875 "/>
<path style=" stroke:none;fill-rule:nonzero;fill:rgb(94.901961%,94.901961%,94.901961%);fill-opacity:1;" d="M 212.796875 241.332031 C 212.796875 244.925781 209.882812 247.839844 206.289062 247.839844 C 202.695312 247.839844 199.78125 244.925781 199.78125 241.332031 C 199.78125 237.738281 202.695312 234.824219 206.289062 234.824219 C 209.882812 234.824219 212.796875 237.738281 212.796875 241.332031 Z M 212.796875 241.332031 "/>
<path style=" stroke:none;fill-rule:nonzero;fill:rgb(83.529412%,64.705882%,18.039216%);fill-opacity:1;" d="M 198.78125 257.351562 C 198.78125 260.949219 195.867188 263.863281 192.273438 263.863281 C 188.679688 263.863281 185.769531 260.949219 185.769531 257.351562 C 185.769531 253.757812 188.679688 250.84375 192.273438 250.84375 C 195.867188 250.84375 198.78125 253.757812 198.78125 257.351562 Z M 198.78125 257.351562 "/>
<path style=" stroke:none;fill-rule:nonzero;fill:rgb(83.529412%,64.705882%,18.039216%);fill-opacity:1;" d="M 215.796875 270.871094 C 215.796875 274.46875 212.886719 277.382812 209.292969 277.382812 C 205.699219 277.382812 202.785156 274.46875 202.785156 270.871094 C 202.785156 267.277344 205.699219 264.363281 209.292969 264.363281 C 212.886719 264.363281 215.796875 267.277344 215.796875 270.871094 Z M 215.796875 270.871094 "/>
<path style=" stroke:none;fill-rule:nonzero;fill:rgb(94.901961%,94.901961%,94.901961%);fill-opacity:1;" d="M 193.777344 291.902344 C 193.777344 295.496094 190.863281 298.410156 187.269531 298.410156 C 183.675781 298.410156 180.761719 295.496094 180.761719 291.902344 C 180.761719 288.304688 183.675781 285.390625 187.269531 285.390625 C 190.863281 285.390625 193.777344 288.304688 193.777344 291.902344 Z M 193.777344 291.902344 "/>
<path style=" stroke:none;fill-rule:nonzero;fill:rgb(94.901961%,94.901961%,94.901961%);fill-opacity:1;" d="M 195.277344 353.484375 C 195.277344 353.484375 188.769531 337.464844 208.289062 325.445312 Z M 195.277344 353.484375 "/>
<path style=" stroke:none;fill-rule:nonzero;fill:rgb(94.901961%,94.901961%,94.901961%);fill-opacity:1;" d="M 187.277344 353.195312 C 187.277344 353.195312 184.316406 336.15625 161.394531 336.304688 Z M 187.277344 353.195312 "/>
<use xlink:href="#surface5" mask="url(#mask0)"/>
<use xlink:href="#surface8" mask="url(#mask1)"/>
<path style=" stroke:none;fill-rule:nonzero;fill:rgb(83.529412%,64.705882%,18.039216%);fill-opacity:1;" d="M 179.984375 169.734375 C 179.984375 180.015625 171.652344 188.351562 161.371094 188.351562 C 151.09375 188.351562 142.761719 180.015625 142.761719 169.734375 C 142.761719 159.453125 151.09375 151.117188 161.371094 151.117188 C 171.652344 151.117188 179.984375 159.453125 179.984375 169.734375 Z M 179.984375 169.734375 "/>
<path style=" stroke:none;fill-rule:nonzero;fill:rgb(100%,100%,100%);fill-opacity:1;" d="M 164.757812 165.71875 C 164.757812 164.144531 163.671875 162.777344 162.136719 162.417969 C 160.605469 162.0625 159.027344 162.8125 158.335938 164.226562 C 157.640625 165.640625 158.015625 167.347656 159.234375 168.339844 L 157.988281 177.066406 L 164.757812 177.066406 L 163.511719 168.339844 C 164.300781 167.699219 164.757812 166.734375 164.757812 165.71875 Z M 164.757812 165.71875 "/>
<path style=" stroke:none;fill-rule:nonzero;fill:rgb(18.431373%,18.039216%,25.490196%);fill-opacity:1;" d="M 348.398438 26.6875 C 348.398438 26.6875 337.234375 16.675781 322.226562 35.542969 C 307.214844 54.410156 283.734375 63.652344 278.347656 70.96875 C 278.347656 70.96875 300.671875 61.726562 308.367188 57.875 C 316.066406 54.023438 315.683594 54.796875 315.683594 54.796875 C 315.683594 54.796875 305.289062 62.109375 303.363281 69.425781 C 301.441406 76.742188 302.980469 82.902344 299.515625 90.21875 C 296.050781 97.535156 365.71875 95.226562 365.71875 95.226562 C 365.71875 95.226562 372.644531 83.289062 370.722656 70.96875 C 368.796875 58.644531 369.953125 28.226562 348.398438 26.6875 Z M 348.398438 26.6875 "/>
<path style=" stroke:none;fill-rule:nonzero;fill:rgb(100%,72.54902%,72.54902%);fill-opacity:1;" d="M 327.285156 58.179688 C 327.285156 58.179688 329.710938 75.175781 319.3125 78.992188 C 308.910156 82.808594 312.722656 88.011719 312.722656 88.011719 L 328.324219 95.644531 L 344.96875 90.441406 L 350.515625 82.113281 C 350.515625 82.113281 341.503906 80.035156 343.929688 73.789062 C 346.355469 67.546875 347.050781 65.464844 347.050781 65.464844 Z M 327.285156 58.179688 "/>
<use xlink:href="#surface11" mask="url(#mask2)"/>
<path style=" stroke:none;fill-rule:nonzero;fill:rgb(100%,72.54902%,72.54902%);fill-opacity:1;" d="M 370.976562 106.742188 C 370.976562 106.742188 368.546875 138.65625 369.242188 140.042969 C 369.933594 141.429688 369.242188 189.644531 369.242188 189.644531 C 369.242188 189.644531 374.09375 215.660156 367.855469 217.046875 C 361.613281 218.4375 363 187.910156 363 187.910156 L 356.757812 147.675781 L 357.453125 107.785156 Z M 370.976562 106.742188 "/>
<use xlink:href="#surface14" mask="url(#mask3)"/>
<path style=" stroke:none;fill-rule:nonzero;fill:rgb(100%,72.54902%,72.54902%);fill-opacity:1;" d="M 303.359375 202.828125 C 303.359375 202.828125 291.917969 246.1875 292.265625 267.34375 C 292.613281 288.503906 297.121094 317.988281 297.121094 317.988281 C 297.121094 317.988281 297.8125 330.824219 296.773438 332.210938 C 295.734375 333.597656 301.972656 339.492188 301.972656 339.492188 L 308.5625 335.679688 L 310.988281 332.902344 L 310.988281 330.476562 C 310.988281 330.476562 307.175781 318.683594 310.296875 309.316406 C 313.417969 299.949219 315.148438 276.363281 312.027344 269.078125 L 333.527344 205.253906 Z M 303.359375 202.828125 "/>
<path style=" stroke:none;fill-rule:nonzero;fill:rgb(18.431373%,18.039216%,25.490196%);fill-opacity:1;" d="M 302.667969 333.945312 C 302.667969 333.945312 298.507812 328.742188 295.734375 330.476562 C 292.957031 332.210938 288.449219 344.003906 288.449219 344.003906 C 288.449219 344.003906 272.847656 358.917969 283.945312 359.613281 C 295.039062 360.304688 299.894531 356.492188 301.28125 353.714844 C 302.667969 350.941406 315.496094 343.65625 315.496094 343.65625 C 315.496094 343.65625 314.109375 330.476562 312.027344 330.128906 C 309.949219 329.78125 306.828125 335.332031 306.828125 335.332031 Z M 302.667969 333.945312 "/>
<path style=" stroke:none;fill-rule:nonzero;fill:rgb(100%,72.54902%,72.54902%);fill-opacity:1;" d="M 341.15625 205.601562 L 341.15625 248.613281 C 341.195312 253.832031 341.542969 259.042969 342.195312 264.222656 C 343.234375 271.855469 336.300781 328.742188 336.300781 328.742188 L 336.996094 338.800781 L 345.664062 338.105469 L 346.703125 329.433594 L 359.1875 291.277344 C 359.1875 291.277344 363.347656 268.039062 361.265625 259.367188 C 359.1875 250.695312 372.015625 195.195312 372.015625 195.195312 Z M 341.15625 205.601562 "/>
<path style=" stroke:none;fill-rule:nonzero;fill:rgb(18.431373%,18.039216%,25.490196%);fill-opacity:1;" d="M 334.21875 336.371094 L 336.789062 335.8125 C 336.789062 335.8125 338.726562 331.515625 341.15625 332.558594 C 342.863281 333.34375 344.480469 334.316406 345.980469 335.449219 L 347.050781 337.414062 C 347.050781 337.414062 349.476562 342.617188 352.597656 346.085938 C 355.71875 349.554688 359.1875 357.183594 353.984375 357.878906 C 348.785156 358.570312 341.847656 358.917969 339.769531 357.183594 C 337.6875 355.449219 339.074219 352.675781 336.996094 351.980469 C 334.914062 351.289062 333.179688 349.207031 333.527344 348.511719 C 333.875 347.820312 334.21875 336.371094 334.21875 336.371094 Z M 334.21875 336.371094 "/>
<path style=" stroke:none;fill-rule:nonzero;fill:rgb(100%,72.54902%,72.54902%);fill-opacity:1;" d="M 356.566406 54.710938 C 356.566406 63.226562 349.667969 70.128906 341.15625 70.128906 C 332.644531 70.128906 325.746094 63.226562 325.746094 54.710938 C 325.746094 46.199219 332.644531 39.296875 341.15625 39.296875 C 349.667969 39.296875 356.566406 46.199219 356.566406 54.710938 Z M 356.566406 54.710938 "/>
<path style=" stroke:none;fill-rule:nonzero;fill:rgb(83.529412%,64.705882%,18.039216%);fill-opacity:1;" d="M 312.027344 81.769531 L 316.609375 80.167969 C 316.609375 80.167969 314.804688 83.15625 324.511719 84.890625 C 334.21875 86.625 344.273438 87.238281 348.78125 81.554688 C 348.78125 81.554688 350.515625 80.726562 352.945312 83.15625 C 355.371094 85.582031 356.757812 84.890625 356.757812 84.890625 L 355.023438 93.910156 L 351.558594 110.558594 L 347.050781 123.046875 L 334.21875 120.269531 L 320.351562 110.210938 L 315.148438 96.683594 L 315.148438 84.195312 Z M 312.027344 81.769531 "/>
<path style=" stroke:none;fill-rule:nonzero;fill:rgb(83.529412%,64.705882%,18.039216%);fill-opacity:1;" d="M 354.332031 86.625 L 357.796875 84.195312 C 357.796875 84.195312 369.585938 86.277344 370.28125 91.828125 L 361.265625 109.171875 C 363.105469 113.996094 362.980469 119.351562 360.917969 124.085938 C 357.453125 132.066406 357.796875 133.800781 357.796875 133.800781 L 355.371094 144.207031 L 311.335938 147.675781 C 311.335938 147.675781 309.601562 143.511719 308.910156 142.816406 C 308.214844 142.125 308.214844 139.695312 308.910156 139.695312 C 309.601562 139.695312 308.910156 138.65625 308.214844 137.613281 C 307.523438 136.574219 307.175781 136.226562 308.214844 134.839844 C 309.253906 133.453125 306.480469 120.964844 306.480469 120.964844 L 306.480469 107.4375 L 294.691406 91.828125 C 294.691406 91.828125 298.851562 85.582031 300.933594 84.890625 C 303.015625 84.195312 312.910156 81.460938 312.910156 81.460938 L 315.148438 84.757812 L 318.269531 109.863281 L 322.777344 125.128906 L 341.757812 121.902344 L 349.128906 109.519531 L 353.984375 94.949219 Z M 354.332031 86.625 "/>
<path style=" stroke:none;fill-rule:nonzero;fill:rgb(83.529412%,64.705882%,18.039216%);fill-opacity:1;" d="M 367.507812 89.746094 L 370.28125 91.828125 C 370.28125 91.828125 372.707031 111.253906 372.015625 112.640625 C 371.320312 114.027344 359.1875 115.414062 358.839844 114.722656 C 358.492188 114.027344 367.507812 89.746094 367.507812 89.746094 Z M 367.507812 89.746094 "/>
<path style=" stroke:none;fill-rule:nonzero;fill:rgb(18.431373%,18.039216%,25.490196%);fill-opacity:1;" d="M 310.296875 80.035156 L 313.761719 102.925781 C 313.761719 102.925781 310.640625 136.921875 311.335938 143.859375 L 312.027344 145.941406 C 312.027344 145.941406 310.640625 145.246094 310.296875 146.632812 C 309.949219 148.019531 310.296875 152.53125 310.296875 152.53125 C 310.296875 152.53125 308.214844 154.613281 307.523438 166.058594 C 306.828125 177.503906 298.507812 204.90625 301.628906 205.949219 C 304.746094 206.988281 323.472656 212.191406 333.527344 211.152344 C 343.582031 210.109375 379.644531 197.96875 379.296875 194.847656 C 378.949219 191.726562 361.613281 147.675781 361.613281 147.675781 C 361.613281 147.675781 358.492188 142.472656 358.492188 141.777344 C 358.492188 141.082031 362.652344 138.308594 361.613281 135.535156 C 360.574219 132.757812 355.023438 103.621094 355.023438 103.621094 L 358.839844 82.808594 L 353.636719 81.421875 L 349.824219 101.539062 C 349.824219 101.539062 334.914062 108.824219 319.3125 102.234375 L 315.84375 78.644531 Z M 310.296875 80.035156 "/>
<path style=" stroke:none;fill-rule:nonzero;fill:rgb(18.431373%,18.039216%,25.490196%);fill-opacity:1;" d="M 326.976562 43.648438 C 326.976562 43.648438 352.636719 61.339844 359.570312 53.359375 C 366.507812 45.382812 347.4375 38.445312 347.4375 38.445312 L 331.484375 36.710938 Z M 326.976562 43.648438 "/>
<path style=" stroke:none;fill-rule:nonzero;fill:rgb(83.529412%,64.705882%,18.039216%);fill-opacity:1;" d="M 287.109375 231.839844 C 292.574219 235.910156 300.210938 235.277344 304.933594 230.367188 C 309.660156 225.457031 309.996094 217.800781 305.722656 212.496094 C 301.449219 207.1875 293.898438 205.886719 288.097656 209.460938 C 282.296875 213.035156 280.054688 220.363281 282.867188 226.570312 L 247.480469 256.046875 L 242.765625 250.453125 L 240.648438 251.867188 L 238.292969 249.070312 L 240.230469 247.441406 L 237.875 244.644531 L 234.863281 247.179688 L 236.3125 248.902344 L 233.085938 251.621094 L 231.636719 249.898438 L 226.90625 253.890625 L 229.078125 256.472656 L 230.800781 255.019531 L 233.15625 257.816406 L 231.003906 259.628906 L 235.355469 264.792969 L 230.191406 269.144531 L 235.449219 275.386719 Z M 295.945312 212.066406 C 300.871094 212.488281 304.523438 216.820312 304.101562 221.75 C 303.679688 226.675781 299.347656 230.328125 294.421875 229.90625 C 289.5 229.488281 285.847656 225.152344 286.269531 220.222656 C 286.6875 215.296875 291.023438 211.644531 295.945312 212.066406 Z M 295.945312 212.066406 "/>
<path style=" stroke:none;fill-rule:nonzero;fill:rgb(100%,72.54902%,72.54902%);fill-opacity:1;" d="M 292.265625 110.90625 C 292.265625 110.90625 294.691406 142.816406 294 144.207031 C 293.304688 145.59375 294 193.808594 294 193.808594 C 294 193.808594 289.144531 219.824219 295.386719 221.210938 C 301.628906 222.597656 300.238281 192.074219 300.238281 192.074219 L 306.480469 151.835938 L 305.789062 111.945312 Z M 292.265625 110.90625 "/>
<path style=" stroke:none;fill-rule:nonzero;fill:rgb(83.529412%,64.705882%,18.039216%);fill-opacity:1;" d="M 297.464844 90.785156 L 294.691406 91.828125 C 294.691406 91.828125 289.492188 113.679688 290.878906 113.679688 C 292.265625 113.679688 308.910156 115.761719 308.910156 115.066406 C 308.910156 114.375 305.789062 97.378906 305.789062 97.378906 Z M 297.464844 90.785156 "/>
</g>
</svg>
