<?xml version="1.0" encoding="UTF-8"?>
<svg xmlns="http://www.w3.org/2000/svg" xmlns:xlink="http://www.w3.org/1999/xlink" width="305pt" height="364pt" viewBox="0 0 305 364" version="1.1">
<g id="surface1">
<path style=" stroke:none;fill-rule:nonzero;fill:rgb(24.705882%,23.921569%,33.72549%);fill-opacity:1;" d="M 181.445312 86.472656 L 179.445312 86.472656 L 179.445312 31.699219 C 179.445312 14.191406 165.253906 0 147.746094 0 L 31.699219 0 C 14.191406 0 0 14.191406 0 31.699219 L 0 332.1875 C 0 349.695312 14.191406 363.890625 31.699219 363.890625 L 147.746094 363.890625 C 165.253906 363.890625 179.445312 349.695312 179.445312 332.1875 L 179.445312 125.460938 L 181.445312 125.460938 Z M 181.445312 86.472656 "/>
<path style=" stroke:none;fill-rule:nonzero;fill:rgb(100%,100%,100%);fill-opacity:1;" d="M 172.699219 31.921875 L 172.699219 331.96875 C 172.699219 343.785156 163.988281 353.789062 152.285156 355.417969 C 151.203125 355.566406 150.113281 355.644531 149.023438 355.640625 L 32.417969 355.640625 C 31.328125 355.644531 30.238281 355.566406 29.160156 355.417969 C 17.457031 353.789062 8.746094 343.78125 8.75 331.96875 L 8.75 31.921875 C 8.75 18.847656 19.347656 8.246094 32.421875 8.246094 L 46.570312 8.246094 C 45.152344 11.714844 45.554688 15.660156 47.644531 18.769531 C 49.734375 21.878906 53.238281 23.746094 56.984375 23.742188 L 123.464844 23.742188 C 127.210938 23.742188 130.710938 21.878906 132.800781 18.769531 C 134.890625 15.660156 135.292969 11.714844 133.875 8.246094 L 149.023438 8.246094 C 162.097656 8.246094 172.699219 18.847656 172.699219 31.921875 Z M 172.699219 31.921875 "/>
<path style=" stroke:none;fill-rule:nonzero;fill:rgb(90.196078%,90.196078%,90.196078%);fill-opacity:1;" d="M 172.699219 255.917969 L 172.699219 331.96875 C 172.699219 343.785156 163.988281 353.789062 152.285156 355.417969 L 29.160156 355.417969 C 17.457031 353.789062 8.746094 343.78125 8.75 331.96875 L 8.75 255.917969 Z M 172.699219 255.917969 "/>
<path style=" stroke:none;fill-rule:nonzero;fill:rgb(100%,100%,100%);fill-opacity:1;" d="M 106.382812 305.667969 C 106.382812 314.316406 99.371094 321.328125 90.722656 321.328125 C 82.074219 321.328125 75.0625 314.316406 75.0625 305.667969 C 75.0625 297.019531 82.074219 290.007812 90.722656 290.007812 C 99.371094 290.007812 106.382812 297.019531 106.382812 305.667969 Z M 106.382812 305.667969 "/>
<path style=" stroke:none;fill-rule:nonzero;fill:rgb(90.196078%,90.196078%,90.196078%);fill-opacity:1;" d="M 100.121094 305.667969 L 91.664062 305.667969 L 91.664062 297.210938 L 89.785156 297.210938 L 89.785156 305.667969 L 81.328125 305.667969 L 81.328125 307.546875 L 89.785156 307.546875 L 89.785156 316.003906 L 91.664062 316.003906 L 91.664062 307.546875 L 100.121094 307.546875 Z M 100.121094 305.667969 "/>
<path style=" stroke:none;fill-rule:nonzero;fill:rgb(100%,72.54902%,72.54902%);fill-opacity:1;" d="M 118.53125 207.21875 L 118.53125 221.285156 L 111.308594 229.648438 C 111.308594 229.648438 108.265625 228.507812 108.265625 220.902344 L 107.125 209.878906 Z M 118.53125 207.21875 "/>
<path style=" stroke:none;fill-rule:nonzero;fill:rgb(100%,72.54902%,72.54902%);fill-opacity:1;" d="M 111.308594 221.285156 C 111.308594 221.285156 123.09375 213.300781 123.472656 210.640625 C 123.851562 207.980469 134.773438 196 137.917969 203.417969 C 140.882812 210.417969 128.882812 216.417969 128.882812 216.417969 C 128.882812 216.417969 120.429688 231.929688 114.730469 231.546875 C 109.027344 231.167969 109.027344 223.945312 111.308594 221.285156 Z M 111.308594 221.285156 "/>
<path style=" stroke:none;fill-rule:nonzero;fill:rgb(100%,72.54902%,72.54902%);fill-opacity:1;" d="M 104.464844 306.816406 L 103.324219 313.660156 L 109.40625 312.136719 L 109.40625 306.816406 Z M 104.464844 306.816406 "/>
<path style=" stroke:none;fill-rule:nonzero;fill:rgb(18.431373%,18.039216%,25.490196%);fill-opacity:1;" d="M 105.605469 310.617188 C 105.605469 310.617188 112.636719 306.453125 112.921875 308.34375 C 113.207031 310.238281 116.25 317.460938 117.769531 318.222656 C 119.289062 318.980469 121.191406 327.34375 117.769531 326.964844 C 115.121094 326.667969 105.402344 321.585938 101.152344 319.308594 C 100.066406 318.722656 99.628906 317.390625 100.15625 316.277344 C 100.402344 315.816406 100.574219 315.316406 100.664062 314.800781 C 100.664062 314.039062 105.605469 310.617188 105.605469 310.617188 Z M 105.605469 310.617188 "/>
<path style=" stroke:none;fill-rule:nonzero;fill:rgb(18.431373%,18.039216%,25.490196%);fill-opacity:1;" d="M 102.183594 233.449219 C 102.183594 233.449219 129.933594 246.375 127.273438 256.257812 C 124.613281 266.140625 114.730469 307.957031 114.730469 307.957031 C 114.730469 307.957031 103.703125 310.617188 102.945312 307.957031 C 102.183594 305.296875 110.167969 263.859375 109.40625 262.339844 C 108.644531 260.820312 94.582031 250.933594 94.582031 250.933594 L 65.691406 238.769531 L 77.855469 227.367188 Z M 102.183594 233.449219 "/>
<path style=" stroke:none;fill-rule:nonzero;fill:rgb(100%,72.54902%,72.54902%);fill-opacity:1;" d="M 123.09375 309.097656 L 126.511719 317.839844 L 120.429688 320.503906 L 116.628906 313.660156 Z M 123.09375 309.097656 "/>
<path style=" stroke:none;fill-rule:nonzero;fill:rgb(100%,72.54902%,72.54902%);fill-opacity:1;" d="M 102.5625 171.105469 C 102.5625 171.105469 99.144531 175.667969 101.804688 177.949219 C 104.464844 180.226562 102.5625 188.589844 102.5625 188.589844 L 99.144531 198.09375 L 85.457031 195.433594 L 85.457031 179.847656 L 86.21875 172.246094 C 86.21875 172.246094 93.0625 165.78125 93.820312 160.839844 C 94.582031 155.898438 102.5625 171.105469 102.5625 171.105469 Z M 102.5625 171.105469 "/>
<path style=" stroke:none;fill-rule:nonzero;fill:rgb(18.431373%,18.039216%,25.490196%);fill-opacity:1;" d="M 79.753906 230.40625 C 79.753906 230.40625 97.621094 250.175781 97.621094 250.933594 C 97.621094 251.695312 107.125 267.28125 107.125 267.28125 L 125.753906 308.71875 C 125.753906 308.71875 118.53125 318.601562 115.488281 317.839844 C 112.449219 317.082031 90.78125 272.984375 90.78125 272.984375 C 90.78125 272.984375 86.976562 263.101562 76.714844 260.820312 C 66.449219 258.539062 58.46875 250.554688 62.269531 241.433594 C 66.070312 232.308594 79.753906 230.40625 79.753906 230.40625 Z M 79.753906 230.40625 "/>
<path style=" stroke:none;fill-rule:nonzero;fill:rgb(100%,72.54902%,72.54902%);fill-opacity:1;" d="M 114.730469 161.601562 C 114.730469 168.320312 109.28125 173.765625 102.5625 173.765625 C 95.847656 173.765625 90.398438 168.320312 90.398438 161.601562 C 90.398438 154.882812 95.847656 149.4375 102.5625 149.4375 C 109.28125 149.4375 114.730469 154.882812 114.730469 161.601562 Z M 114.730469 161.601562 "/>
<path style=" stroke:none;fill-rule:nonzero;fill:rgb(83.529412%,64.705882%,18.039216%);fill-opacity:1;" d="M 102.183594 181.367188 C 102.183594 181.367188 100.664062 190.113281 99.144531 190.871094 C 97.621094 191.632812 96.480469 194.292969 93.0625 190.492188 C 89.640625 186.691406 86.597656 179.089844 86.597656 179.089844 L 74.8125 193.535156 L 73.671875 233.449219 C 73.671875 233.449219 86.976562 230.027344 91.160156 233.449219 C 95.339844 236.871094 104.464844 236.488281 104.464844 236.488281 L 102.5625 228.886719 L 104.085938 215.960938 L 103.703125 204.175781 L 103.324219 195.8125 Z M 102.183594 181.367188 "/>
<path style=" stroke:none;fill-rule:nonzero;fill:rgb(24.705882%,23.921569%,33.72549%);fill-opacity:1;" d="M 100.84375 174.96875 C 100.84375 174.96875 105.984375 177.566406 106.367188 179.089844 C 106.746094 180.609375 113.589844 183.648438 113.589844 183.648438 C 113.589844 183.648438 116.25 186.3125 116.25 187.832031 C 116.25 189.351562 107.125 206.839844 107.125 206.839844 C 107.125 206.839844 105.226562 218.625 105.984375 220.902344 C 106.746094 223.183594 104.464844 231.929688 104.464844 231.929688 L 109.027344 237.25 L 104.84375 237.25 C 104.84375 237.25 100.285156 234.96875 100.285156 233.828125 C 100.285156 232.6875 101.042969 224.707031 101.421875 221.285156 C 101.804688 217.863281 101.804688 205.699219 101.042969 201.515625 C 100.285156 197.335938 100.664062 186.3125 100.664062 183.648438 C 100.664062 180.988281 100.84375 174.96875 100.84375 174.96875 Z M 100.84375 174.96875 "/>
<path style=" stroke:none;fill-rule:nonzero;fill:rgb(24.705882%,23.921569%,33.72549%);fill-opacity:1;" d="M 89.070312 169.199219 C 89.070312 169.199219 87.359375 169.585938 82.417969 171.105469 C 77.476562 172.625 69.871094 174.90625 67.210938 177.949219 C 65.34375 180.195312 63.6875 182.613281 62.269531 185.171875 L 63.789062 212.539062 C 63.789062 212.539062 60.75 218.242188 61.128906 221.285156 C 61.507812 224.324219 64.550781 224.707031 62.269531 231.167969 C 59.988281 237.628906 55.425781 243.332031 59.609375 244.09375 C 63.789062 244.851562 74.8125 242.191406 79.753906 243.710938 C 84.699219 245.234375 90.398438 238.011719 90.398438 238.011719 C 90.398438 238.011719 82.796875 238.769531 83.9375 235.730469 C 85.078125 232.6875 97.621094 198.476562 94.960938 190.871094 C 92.300781 183.269531 89.070312 169.199219 89.070312 169.199219 Z M 89.070312 169.199219 "/>
<path style=" stroke:none;fill-rule:nonzero;fill:rgb(24.705882%,23.921569%,33.72549%);fill-opacity:1;" d="M 114.347656 185.929688 L 116.25 187.453125 C 116.25 187.453125 121.570312 206.457031 120.050781 208.359375 C 118.53125 210.261719 106.367188 214.441406 105.605469 211.78125 C 104.84375 209.121094 114.347656 185.929688 114.347656 185.929688 Z M 114.347656 185.929688 "/>
<path style=" stroke:none;fill-rule:nonzero;fill:rgb(100%,72.54902%,72.54902%);fill-opacity:1;" d="M 58.085938 199.234375 C 58.085938 199.234375 52.386719 215.582031 52.386719 220.144531 C 52.386719 224.707031 53.144531 251.316406 53.144531 251.316406 C 53.144531 251.316406 56.945312 267.289062 64.929688 262.726562 C 72.914062 258.164062 61.507812 250.554688 61.507812 250.554688 C 61.507812 250.554688 61.890625 220.523438 64.929688 216.34375 C 67.972656 212.160156 69.113281 206.078125 69.113281 206.078125 Z M 58.085938 199.234375 "/>
<path style=" stroke:none;fill-rule:nonzero;fill:rgb(18.431373%,18.039216%,25.490196%);fill-opacity:1;" d="M 120.429688 317.460938 C 120.429688 317.460938 126.132812 314.417969 127.273438 316.699219 C 128.414062 318.980469 134.496094 331.527344 133.734375 333.046875 C 132.976562 334.566406 128.792969 340.648438 123.851562 339.128906 C 118.910156 337.609375 118.53125 329.625 118.53125 329.625 L 118.148438 320.5 Z M 120.429688 317.460938 "/>
<path style=" stroke:none;fill-rule:nonzero;fill:rgb(18.431373%,18.039216%,25.490196%);fill-opacity:1;" d="M 104.945312 158.664062 C 104.109375 159.058594 103.113281 159.292969 102.585938 160.054688 C 102.199219 160.621094 102.160156 161.351562 101.875 161.976562 C 101.230469 163.261719 99.695312 163.820312 98.375 163.257812 C 98.222656 162.5 97.78125 161.832031 97.144531 161.390625 C 96.488281 160.957031 95.625 161.003906 95.019531 161.503906 C 94.234375 162.253906 94.511719 163.554688 94.148438 164.574219 C 93.804688 165.289062 93.332031 165.9375 92.753906 166.484375 C 91.921875 167.445312 91.257812 168.570312 90.257812 169.351562 C 89.253906 170.132812 87.734375 170.46875 86.742188 169.679688 C 85.902344 169.019531 85.730469 167.792969 85.933594 166.746094 C 86.136719 165.695312 86.640625 164.730469 86.925781 163.699219 C 87.847656 160.355469 86.375 156.78125 86.832031 153.339844 C 87.414062 148.933594 91.164062 145.449219 95.347656 143.9375 C 97.085938 143.230469 98.992188 143.027344 100.84375 143.355469 C 102.757812 143.78125 104.390625 145 106.222656 145.695312 C 108.183594 146.441406 110.3125 146.570312 112.363281 147.007812 C 114.414062 147.441406 116.523438 148.285156 117.710938 150.011719 C 118.542969 151.214844 118.828125 152.707031 119.515625 154 C 120.308594 155.472656 121.589844 156.621094 123.140625 157.246094 L 120.972656 157.121094 C 121.335938 158.089844 121.929688 158.953125 122.699219 159.644531 C 121.683594 159.851562 120.625 159.710938 119.699219 159.246094 C 119.734375 160.148438 120.136719 160.992188 120.816406 161.585938 C 119.148438 161.535156 117.390625 161.457031 115.980469 160.5625 C 115.292969 160.125 114.730469 159.515625 114.078125 159.019531 C 112.695312 157.964844 110.976562 157.460938 109.300781 156.980469 C 108.421875 156.730469 107.363281 156.378906 106.570312 156.945312 C 105.90625 157.414062 105.800781 158.261719 104.945312 158.664062 Z M 104.945312 158.664062 "/>
<path style=" stroke:none;fill-rule:nonzero;fill:rgb(24.705882%,23.921569%,33.72549%);fill-opacity:1;" d="M 67.972656 180.609375 L 62.269531 185.171875 L 54.664062 202.65625 C 54.664062 202.65625 65.308594 211.019531 67.972656 209.878906 C 70.632812 208.738281 75.195312 188.589844 75.195312 188.589844 Z M 67.972656 180.609375 "/>
<path style=" stroke:none;fill-rule:nonzero;fill:rgb(94.901961%,94.901961%,94.901961%);fill-opacity:1;" d="M 141.296875 206.628906 C 141.21875 206.5625 141.089844 206.585938 141.011719 206.679688 C 140.933594 206.773438 140.933594 206.902344 141.015625 206.96875 C 141.09375 207.035156 141.222656 207.015625 141.300781 206.921875 C 141.378906 206.828125 141.375 206.695312 141.296875 206.628906 Z M 141.296875 206.628906 "/>
<path style=" stroke:none;fill-rule:nonzero;fill:rgb(100%,100%,100%);fill-opacity:1;" d="M 135.808594 173.292969 C 134.445312 173.296875 133.339844 174.398438 133.339844 175.761719 L 133.339844 217.089844 C 133.339844 218.453125 134.445312 219.558594 135.808594 219.558594 L 302.414062 219.558594 C 303.777344 219.558594 304.882812 218.453125 304.882812 217.089844 L 304.882812 175.761719 C 304.882812 174.398438 303.777344 173.296875 302.414062 173.292969 Z M 135.808594 173.292969 "/>
<path style=" stroke:none;fill-rule:nonzero;fill:rgb(90.196078%,90.196078%,90.196078%);fill-opacity:1;" d="M 135.808594 173.292969 C 134.445312 173.296875 133.339844 174.398438 133.339844 175.761719 L 133.339844 217.089844 C 133.339844 218.453125 134.445312 219.558594 135.808594 219.558594 L 302.414062 219.558594 C 303.777344 219.558594 304.882812 218.453125 304.882812 217.089844 L 304.882812 175.761719 C 304.882812 174.398438 303.777344 173.296875 302.414062 173.292969 Z M 135.808594 173.292969 "/>
<path style=" stroke:none;fill-rule:nonzero;fill:rgb(100%,100%,100%);fill-opacity:1;" d="M 136.117188 216.78125 L 302.105469 216.78125 L 302.105469 176.070312 L 136.117188 176.070312 Z M 136.117188 216.78125 "/>
<path style=" stroke:none;fill-rule:nonzero;fill:rgb(83.529412%,64.705882%,18.039216%);fill-opacity:1;" d="M 170.363281 196.425781 C 170.363281 203.582031 164.5625 209.386719 157.40625 209.386719 C 150.246094 209.386719 144.445312 203.582031 144.445312 196.425781 C 144.445312 189.269531 150.246094 183.46875 157.40625 183.46875 C 164.5625 183.46875 170.363281 189.269531 170.363281 196.425781 Z M 170.363281 196.425781 "/>
<path style=" stroke:none;fill-rule:nonzero;fill:rgb(90.196078%,90.196078%,90.196078%);fill-opacity:1;" d="M 187.332031 187.789062 C 186.140625 187.789062 185.175781 188.753906 185.175781 189.945312 C 185.175781 191.140625 186.140625 192.105469 187.332031 192.105469 L 289.148438 192.105469 C 290.339844 192.105469 291.308594 191.140625 291.308594 189.945312 C 291.308594 188.753906 290.339844 187.789062 289.148438 187.789062 Z M 187.332031 187.789062 "/>
<path style=" stroke:none;fill-rule:nonzero;fill:rgb(90.196078%,90.196078%,90.196078%);fill-opacity:1;" d="M 187.332031 200.746094 C 186.140625 200.746094 185.175781 201.714844 185.175781 202.90625 C 185.175781 204.097656 186.140625 205.0625 187.332031 205.066406 L 289.148438 205.066406 C 290.339844 205.066406 291.308594 204.097656 291.308594 202.90625 C 291.308594 201.710938 290.339844 200.746094 289.148438 200.746094 Z M 187.332031 200.746094 "/>
<path style=" stroke:none;fill-rule:nonzero;fill:rgb(100%,100%,100%);fill-opacity:1;" d="M 29.160156 48.417969 C 28.15625 48.417969 27.339844 49.234375 27.339844 50.238281 L 27.339844 80.738281 C 27.339844 81.742188 28.15625 82.558594 29.160156 82.558594 L 152.113281 82.558594 C 153.117188 82.558594 153.933594 81.742188 153.933594 80.738281 L 153.933594 50.238281 C 153.933594 49.234375 153.117188 48.417969 152.113281 48.417969 Z M 29.160156 48.417969 "/>
<path style=" stroke:none;fill-rule:nonzero;fill:rgb(90.196078%,90.196078%,90.196078%);fill-opacity:1;" d="M 29.160156 48.417969 C 28.15625 48.417969 27.339844 49.234375 27.339844 50.238281 L 27.339844 80.738281 C 27.339844 81.742188 28.15625 82.558594 29.160156 82.558594 L 152.113281 82.558594 C 153.117188 82.558594 153.933594 81.742188 153.933594 80.738281 L 153.933594 50.238281 C 153.933594 49.234375 153.117188 48.417969 152.113281 48.417969 Z M 29.160156 48.417969 "/>
<path style=" stroke:none;fill-rule:nonzero;fill:rgb(100%,100%,100%);fill-opacity:1;" d="M 29.386719 80.511719 L 151.882812 80.511719 L 151.882812 50.464844 L 29.386719 50.464844 Z M 29.386719 80.511719 "/>
<path style=" stroke:none;fill-rule:nonzero;fill:rgb(83.529412%,64.705882%,18.039216%);fill-opacity:1;" d="M 54.660156 65.488281 C 54.660156 70.769531 50.378906 75.050781 45.097656 75.050781 C 39.816406 75.050781 35.535156 70.769531 35.535156 65.488281 C 35.535156 60.207031 39.816406 55.925781 45.097656 55.925781 C 50.378906 55.925781 54.660156 60.207031 54.660156 65.488281 Z M 54.660156 65.488281 "/>
<path style=" stroke:none;fill-rule:nonzero;fill:rgb(90.196078%,90.196078%,90.196078%);fill-opacity:1;" d="M 67.183594 59.113281 C 66.304688 59.113281 65.589844 59.828125 65.589844 60.707031 C 65.589844 61.585938 66.304688 62.300781 67.183594 62.300781 L 142.320312 62.300781 C 143.203125 62.300781 143.914062 61.585938 143.914062 60.707031 C 143.914062 59.828125 143.203125 59.113281 142.320312 59.113281 Z M 67.183594 59.113281 "/>
<path style=" stroke:none;fill-rule:nonzero;fill:rgb(90.196078%,90.196078%,90.196078%);fill-opacity:1;" d="M 67.183594 68.675781 C 66.304688 68.675781 65.59375 69.390625 65.59375 70.269531 C 65.59375 71.148438 66.304688 71.863281 67.183594 71.863281 L 142.320312 71.863281 C 142.890625 71.863281 143.417969 71.5625 143.703125 71.066406 C 143.988281 70.574219 143.988281 69.964844 143.703125 69.472656 C 143.417969 68.976562 142.890625 68.675781 142.320312 68.675781 Z M 67.183594 68.675781 "/>
<path style=" stroke:none;fill-rule:nonzero;fill:rgb(100%,100%,100%);fill-opacity:1;" d="M 29.160156 102.917969 C 28.15625 102.917969 27.339844 103.734375 27.339844 104.738281 L 27.339844 135.238281 C 27.339844 136.242188 28.15625 137.058594 29.160156 137.058594 L 152.113281 137.058594 C 153.117188 137.058594 153.933594 136.242188 153.933594 135.238281 L 153.933594 104.738281 C 153.933594 103.734375 153.117188 102.917969 152.113281 102.917969 Z M 29.160156 102.917969 "/>
<path style=" stroke:none;fill-rule:nonzero;fill:rgb(90.196078%,90.196078%,90.196078%);fill-opacity:1;" d="M 29.160156 102.917969 C 28.15625 102.917969 27.339844 103.734375 27.339844 104.738281 L 27.339844 135.238281 C 27.339844 136.242188 28.15625 137.058594 29.160156 137.058594 L 152.113281 137.058594 C 153.117188 137.058594 153.933594 136.242188 153.933594 135.238281 L 153.933594 104.738281 C 153.933594 103.734375 153.117188 102.917969 152.113281 102.917969 Z M 29.160156 102.917969 "/>
<path style=" stroke:none;fill-rule:nonzero;fill:rgb(100%,100%,100%);fill-opacity:1;" d="M 29.386719 135.011719 L 151.882812 135.011719 L 151.882812 104.964844 L 29.386719 104.964844 Z M 29.386719 135.011719 "/>
<path style=" stroke:none;fill-rule:nonzero;fill:rgb(83.529412%,64.705882%,18.039216%);fill-opacity:1;" d="M 54.660156 119.988281 C 54.660156 125.269531 50.378906 129.550781 45.097656 129.550781 C 39.816406 129.550781 35.535156 125.269531 35.535156 119.988281 C 35.535156 114.707031 39.816406 110.425781 45.097656 110.425781 C 50.378906 110.425781 54.660156 114.707031 54.660156 119.988281 Z M 54.660156 119.988281 "/>
<path style=" stroke:none;fill-rule:nonzero;fill:rgb(90.196078%,90.196078%,90.196078%);fill-opacity:1;" d="M 67.183594 113.613281 C 66.304688 113.613281 65.589844 114.328125 65.589844 115.207031 C 65.589844 116.085938 66.304688 116.800781 67.183594 116.800781 L 142.320312 116.800781 C 143.203125 116.800781 143.914062 116.085938 143.914062 115.207031 C 143.914062 114.328125 143.203125 113.613281 142.320312 113.613281 Z M 67.183594 113.613281 "/>
<path style=" stroke:none;fill-rule:nonzero;fill:rgb(90.196078%,90.196078%,90.196078%);fill-opacity:1;" d="M 67.183594 123.175781 C 66.304688 123.175781 65.59375 123.890625 65.59375 124.769531 C 65.59375 125.648438 66.304688 126.363281 67.183594 126.363281 L 142.320312 126.363281 C 143.203125 126.363281 143.914062 125.648438 143.914062 124.769531 C 143.914062 123.890625 143.203125 123.175781 142.320312 123.175781 Z M 67.183594 123.175781 "/>
</g>
</svg>
